<mxfile host="Electron" modified="2025-01-06T10:25:37.438Z" agent="Mozilla/5.0 (X11; Linux x86_64) AppleWebKit/537.36 (KHTML, like Gecko) draw.io/24.6.1 Chrome/124.0.6367.207 Electron/30.0.6 Safari/537.36" etag="Ld5J4RXlHYaY-et541Kf" version="24.6.1" type="device">
  <diagram name="Page-1" id="e56a1550-8fbb-45ad-956c-1786394a9013">
    <mxGraphModel dx="543" dy="1102" grid="1" gridSize="10" guides="1" tooltips="1" connect="1" arrows="1" fold="1" page="1" pageScale="1" pageWidth="1100" pageHeight="850" background="none" math="0" shadow="0">
      <root>
        <mxCell id="0" />
        <mxCell id="1" parent="0" />
        <mxCell id="i5tXzH6cKKCym1gsXH8T-3" value="Galaxy Types" style="swimlane;html=1;fontStyle=0;childLayout=stackLayout;horizontal=1;startSize=26;fillColor=none;horizontalStack=0;resizeParent=1;resizeLast=0;collapsible=1;marginBottom=0;swimlaneFillColor=none;align=center;rounded=0;shadow=0;comic=0;labelBackgroundColor=none;strokeWidth=1;fontFamily=Verdana;fontSize=14;strokeColor=default;" vertex="1" parent="1">
          <mxGeometry x="1360" y="298" width="160" height="222" as="geometry" />
        </mxCell>
        <mxCell id="i5tXzH6cKKCym1gsXH8T-4" value="type_id" style="shape=partialRectangle;top=0;left=0;right=0;bottom=1;html=1;align=left;verticalAlign=middle;fillColor=none;spacingLeft=34;spacingRight=4;whiteSpace=wrap;overflow=hidden;rotatable=0;points=[[0,0.5],[1,0.5]];portConstraint=eastwest;dropTarget=0;fontStyle=5;strokeColor=default;" vertex="1" parent="i5tXzH6cKKCym1gsXH8T-3">
          <mxGeometry y="26" width="160" height="30" as="geometry" />
        </mxCell>
        <mxCell id="i5tXzH6cKKCym1gsXH8T-5" value="PK" style="shape=partialRectangle;top=0;left=0;bottom=0;html=1;fillColor=none;align=left;verticalAlign=middle;spacingLeft=4;spacingRight=4;whiteSpace=wrap;overflow=hidden;rotatable=0;points=[];portConstraint=eastwest;part=1;strokeColor=default;" vertex="1" connectable="0" parent="i5tXzH6cKKCym1gsXH8T-4">
          <mxGeometry width="30" height="30" as="geometry" />
        </mxCell>
        <mxCell id="i5tXzH6cKKCym1gsXH8T-6" value="type_name" style="shape=partialRectangle;top=0;left=0;right=0;bottom=0;html=1;align=left;verticalAlign=top;fillColor=none;spacingLeft=34;spacingRight=4;whiteSpace=wrap;overflow=hidden;rotatable=0;points=[[0,0.5],[1,0.5]];portConstraint=eastwest;dropTarget=0;strokeColor=default;" vertex="1" parent="i5tXzH6cKKCym1gsXH8T-3">
          <mxGeometry y="56" width="160" height="26" as="geometry" />
        </mxCell>
        <mxCell id="i5tXzH6cKKCym1gsXH8T-7" value="" style="shape=partialRectangle;top=0;left=0;bottom=0;html=1;fillColor=none;align=left;verticalAlign=top;spacingLeft=4;spacingRight=4;whiteSpace=wrap;overflow=hidden;rotatable=0;points=[];portConstraint=eastwest;part=1;strokeColor=default;" vertex="1" connectable="0" parent="i5tXzH6cKKCym1gsXH8T-6">
          <mxGeometry width="30" height="26" as="geometry" />
        </mxCell>
        <mxCell id="i5tXzH6cKKCym1gsXH8T-8" value="description" style="shape=partialRectangle;top=0;left=0;right=0;bottom=0;html=1;align=left;verticalAlign=top;fillColor=none;spacingLeft=34;spacingRight=4;whiteSpace=wrap;overflow=hidden;rotatable=0;points=[[0,0.5],[1,0.5]];portConstraint=eastwest;dropTarget=0;strokeColor=default;" vertex="1" parent="i5tXzH6cKKCym1gsXH8T-3">
          <mxGeometry y="82" width="160" height="26" as="geometry" />
        </mxCell>
        <mxCell id="i5tXzH6cKKCym1gsXH8T-9" value="" style="shape=partialRectangle;top=0;left=0;bottom=0;html=1;fillColor=none;align=left;verticalAlign=top;spacingLeft=4;spacingRight=4;whiteSpace=wrap;overflow=hidden;rotatable=0;points=[];portConstraint=eastwest;part=1;strokeColor=default;" vertex="1" connectable="0" parent="i5tXzH6cKKCym1gsXH8T-8">
          <mxGeometry width="30" height="26" as="geometry" />
        </mxCell>
        <mxCell id="i5tXzH6cKKCym1gsXH8T-10" value="frequency" style="shape=partialRectangle;top=0;left=0;right=0;bottom=0;html=1;align=left;verticalAlign=top;fillColor=none;spacingLeft=34;spacingRight=4;whiteSpace=wrap;overflow=hidden;rotatable=0;points=[[0,0.5],[1,0.5]];portConstraint=eastwest;dropTarget=0;strokeColor=default;" vertex="1" parent="i5tXzH6cKKCym1gsXH8T-3">
          <mxGeometry y="108" width="160" height="26" as="geometry" />
        </mxCell>
        <mxCell id="i5tXzH6cKKCym1gsXH8T-11" value="" style="shape=partialRectangle;top=0;left=0;bottom=0;html=1;fillColor=none;align=left;verticalAlign=top;spacingLeft=4;spacingRight=4;whiteSpace=wrap;overflow=hidden;rotatable=0;points=[];portConstraint=eastwest;part=1;strokeColor=default;" vertex="1" connectable="0" parent="i5tXzH6cKKCym1gsXH8T-10">
          <mxGeometry width="30" height="26" as="geometry" />
        </mxCell>
        <mxCell id="i5tXzH6cKKCym1gsXH8T-14" value="sub_type" style="shape=partialRectangle;top=0;left=0;right=0;bottom=0;html=1;align=left;verticalAlign=top;fillColor=none;spacingLeft=34;spacingRight=4;whiteSpace=wrap;overflow=hidden;rotatable=0;points=[[0,0.5],[1,0.5]];portConstraint=eastwest;dropTarget=0;strokeColor=default;" vertex="1" parent="i5tXzH6cKKCym1gsXH8T-3">
          <mxGeometry y="134" width="160" height="26" as="geometry" />
        </mxCell>
        <mxCell id="i5tXzH6cKKCym1gsXH8T-15" value="" style="shape=partialRectangle;top=0;left=0;bottom=0;html=1;fillColor=none;align=left;verticalAlign=top;spacingLeft=4;spacingRight=4;whiteSpace=wrap;overflow=hidden;rotatable=0;points=[];portConstraint=eastwest;part=1;strokeColor=default;" vertex="1" connectable="0" parent="i5tXzH6cKKCym1gsXH8T-14">
          <mxGeometry width="30" height="26" as="geometry" />
        </mxCell>
        <mxCell id="i5tXzH6cKKCym1gsXH8T-16" value="avg_mass" style="shape=partialRectangle;top=0;left=0;right=0;bottom=0;html=1;align=left;verticalAlign=top;fillColor=none;spacingLeft=34;spacingRight=4;whiteSpace=wrap;overflow=hidden;rotatable=0;points=[[0,0.5],[1,0.5]];portConstraint=eastwest;dropTarget=0;strokeColor=default;" vertex="1" parent="i5tXzH6cKKCym1gsXH8T-3">
          <mxGeometry y="160" width="160" height="26" as="geometry" />
        </mxCell>
        <mxCell id="i5tXzH6cKKCym1gsXH8T-17" value="" style="shape=partialRectangle;top=0;left=0;bottom=0;html=1;fillColor=none;align=left;verticalAlign=top;spacingLeft=4;spacingRight=4;whiteSpace=wrap;overflow=hidden;rotatable=0;points=[];portConstraint=eastwest;part=1;strokeColor=default;" vertex="1" connectable="0" parent="i5tXzH6cKKCym1gsXH8T-16">
          <mxGeometry width="30" height="26" as="geometry" />
        </mxCell>
        <mxCell id="i5tXzH6cKKCym1gsXH8T-18" value="init_date" style="shape=partialRectangle;top=0;left=0;right=0;bottom=0;html=1;align=left;verticalAlign=top;fillColor=none;spacingLeft=34;spacingRight=4;whiteSpace=wrap;overflow=hidden;rotatable=0;points=[[0,0.5],[1,0.5]];portConstraint=eastwest;dropTarget=0;strokeColor=default;" vertex="1" parent="i5tXzH6cKKCym1gsXH8T-3">
          <mxGeometry y="186" width="160" height="26" as="geometry" />
        </mxCell>
        <mxCell id="i5tXzH6cKKCym1gsXH8T-19" value="" style="shape=partialRectangle;top=0;left=0;bottom=0;html=1;fillColor=none;align=left;verticalAlign=top;spacingLeft=4;spacingRight=4;whiteSpace=wrap;overflow=hidden;rotatable=0;points=[];portConstraint=eastwest;part=1;strokeColor=default;" vertex="1" connectable="0" parent="i5tXzH6cKKCym1gsXH8T-18">
          <mxGeometry width="30" height="26" as="geometry" />
        </mxCell>
        <mxCell id="i5tXzH6cKKCym1gsXH8T-12" value="" style="shape=partialRectangle;top=0;left=0;right=0;bottom=0;html=1;align=left;verticalAlign=top;fillColor=none;spacingLeft=34;spacingRight=4;whiteSpace=wrap;overflow=hidden;rotatable=0;points=[[0,0.5],[1,0.5]];portConstraint=eastwest;dropTarget=0;strokeColor=default;" vertex="1" parent="i5tXzH6cKKCym1gsXH8T-3">
          <mxGeometry y="212" width="160" height="10" as="geometry" />
        </mxCell>
        <mxCell id="i5tXzH6cKKCym1gsXH8T-13" value="" style="shape=partialRectangle;top=0;left=0;bottom=0;html=1;fillColor=none;align=left;verticalAlign=top;spacingLeft=4;spacingRight=4;whiteSpace=wrap;overflow=hidden;rotatable=0;points=[];portConstraint=eastwest;part=1;strokeColor=default;" vertex="1" connectable="0" parent="i5tXzH6cKKCym1gsXH8T-12">
          <mxGeometry width="30" height="10" as="geometry" />
        </mxCell>
        <mxCell id="i5tXzH6cKKCym1gsXH8T-20" value="Galaxies" style="swimlane;html=1;fontStyle=0;childLayout=stackLayout;horizontal=1;startSize=26;fillColor=none;horizontalStack=0;resizeParent=1;resizeLast=0;collapsible=1;marginBottom=0;swimlaneFillColor=none;align=center;rounded=0;shadow=0;comic=0;labelBackgroundColor=none;strokeWidth=1;fontFamily=Verdana;fontSize=14;strokeColor=default;" vertex="1" parent="1">
          <mxGeometry x="1600" y="50" width="160" height="382" as="geometry" />
        </mxCell>
        <mxCell id="i5tXzH6cKKCym1gsXH8T-21" value="galaxy_id" style="shape=partialRectangle;top=0;left=0;right=0;bottom=1;html=1;align=left;verticalAlign=middle;fillColor=none;spacingLeft=34;spacingRight=4;whiteSpace=wrap;overflow=hidden;rotatable=0;points=[[0,0.5],[1,0.5]];portConstraint=eastwest;dropTarget=0;fontStyle=5;strokeColor=default;" vertex="1" parent="i5tXzH6cKKCym1gsXH8T-20">
          <mxGeometry y="26" width="160" height="30" as="geometry" />
        </mxCell>
        <mxCell id="i5tXzH6cKKCym1gsXH8T-22" value="PK" style="shape=partialRectangle;top=0;left=0;bottom=0;html=1;fillColor=none;align=left;verticalAlign=middle;spacingLeft=4;spacingRight=4;whiteSpace=wrap;overflow=hidden;rotatable=0;points=[];portConstraint=eastwest;part=1;strokeColor=default;" vertex="1" connectable="0" parent="i5tXzH6cKKCym1gsXH8T-21">
          <mxGeometry width="30" height="30" as="geometry" />
        </mxCell>
        <mxCell id="i5tXzH6cKKCym1gsXH8T-93" value="galaxy_type" style="shape=partialRectangle;top=0;left=0;right=0;bottom=1;html=1;align=left;verticalAlign=middle;fillColor=none;spacingLeft=34;spacingRight=4;whiteSpace=wrap;overflow=hidden;rotatable=0;points=[[0,0.5],[1,0.5]];portConstraint=eastwest;dropTarget=0;fontStyle=5;strokeColor=default;" vertex="1" parent="i5tXzH6cKKCym1gsXH8T-20">
          <mxGeometry y="56" width="160" height="30" as="geometry" />
        </mxCell>
        <mxCell id="i5tXzH6cKKCym1gsXH8T-94" value="FK" style="shape=partialRectangle;top=0;left=0;bottom=0;html=1;fillColor=none;align=left;verticalAlign=middle;spacingLeft=4;spacingRight=4;whiteSpace=wrap;overflow=hidden;rotatable=0;points=[];portConstraint=eastwest;part=1;strokeColor=default;" vertex="1" connectable="0" parent="i5tXzH6cKKCym1gsXH8T-93">
          <mxGeometry width="30" height="30" as="geometry" />
        </mxCell>
        <mxCell id="i5tXzH6cKKCym1gsXH8T-25" value="galaxy_name" style="shape=partialRectangle;top=0;left=0;right=0;bottom=0;html=1;align=left;verticalAlign=top;fillColor=none;spacingLeft=34;spacingRight=4;whiteSpace=wrap;overflow=hidden;rotatable=0;points=[[0,0.5],[1,0.5]];portConstraint=eastwest;dropTarget=0;strokeColor=default;" vertex="1" parent="i5tXzH6cKKCym1gsXH8T-20">
          <mxGeometry y="86" width="160" height="26" as="geometry" />
        </mxCell>
        <mxCell id="i5tXzH6cKKCym1gsXH8T-26" value="" style="shape=partialRectangle;top=0;left=0;bottom=0;html=1;fillColor=none;align=left;verticalAlign=top;spacingLeft=4;spacingRight=4;whiteSpace=wrap;overflow=hidden;rotatable=0;points=[];portConstraint=eastwest;part=1;strokeColor=default;" vertex="1" connectable="0" parent="i5tXzH6cKKCym1gsXH8T-25">
          <mxGeometry width="30" height="26" as="geometry" />
        </mxCell>
        <mxCell id="i5tXzH6cKKCym1gsXH8T-27" value="distance_mpc" style="shape=partialRectangle;top=0;left=0;right=0;bottom=0;html=1;align=left;verticalAlign=top;fillColor=none;spacingLeft=34;spacingRight=4;whiteSpace=wrap;overflow=hidden;rotatable=0;points=[[0,0.5],[1,0.5]];portConstraint=eastwest;dropTarget=0;strokeColor=default;" vertex="1" parent="i5tXzH6cKKCym1gsXH8T-20">
          <mxGeometry y="112" width="160" height="26" as="geometry" />
        </mxCell>
        <mxCell id="i5tXzH6cKKCym1gsXH8T-28" value="" style="shape=partialRectangle;top=0;left=0;bottom=0;html=1;fillColor=none;align=left;verticalAlign=top;spacingLeft=4;spacingRight=4;whiteSpace=wrap;overflow=hidden;rotatable=0;points=[];portConstraint=eastwest;part=1;strokeColor=default;" vertex="1" connectable="0" parent="i5tXzH6cKKCym1gsXH8T-27">
          <mxGeometry width="30" height="26" as="geometry" />
        </mxCell>
        <mxCell id="i5tXzH6cKKCym1gsXH8T-29" value="distance_ly" style="shape=partialRectangle;top=0;left=0;right=0;bottom=0;html=1;align=left;verticalAlign=top;fillColor=none;spacingLeft=34;spacingRight=4;whiteSpace=wrap;overflow=hidden;rotatable=0;points=[[0,0.5],[1,0.5]];portConstraint=eastwest;dropTarget=0;strokeColor=default;" vertex="1" parent="i5tXzH6cKKCym1gsXH8T-20">
          <mxGeometry y="138" width="160" height="26" as="geometry" />
        </mxCell>
        <mxCell id="i5tXzH6cKKCym1gsXH8T-30" value="" style="shape=partialRectangle;top=0;left=0;bottom=0;html=1;fillColor=none;align=left;verticalAlign=top;spacingLeft=4;spacingRight=4;whiteSpace=wrap;overflow=hidden;rotatable=0;points=[];portConstraint=eastwest;part=1;strokeColor=default;" vertex="1" connectable="0" parent="i5tXzH6cKKCym1gsXH8T-29">
          <mxGeometry width="30" height="26" as="geometry" />
        </mxCell>
        <mxCell id="i5tXzH6cKKCym1gsXH8T-31" value="distance_km" style="shape=partialRectangle;top=0;left=0;right=0;bottom=0;html=1;align=left;verticalAlign=top;fillColor=none;spacingLeft=34;spacingRight=4;whiteSpace=wrap;overflow=hidden;rotatable=0;points=[[0,0.5],[1,0.5]];portConstraint=eastwest;dropTarget=0;strokeColor=default;" vertex="1" parent="i5tXzH6cKKCym1gsXH8T-20">
          <mxGeometry y="164" width="160" height="26" as="geometry" />
        </mxCell>
        <mxCell id="i5tXzH6cKKCym1gsXH8T-32" value="" style="shape=partialRectangle;top=0;left=0;bottom=0;html=1;fillColor=none;align=left;verticalAlign=top;spacingLeft=4;spacingRight=4;whiteSpace=wrap;overflow=hidden;rotatable=0;points=[];portConstraint=eastwest;part=1;strokeColor=default;" vertex="1" connectable="0" parent="i5tXzH6cKKCym1gsXH8T-31">
          <mxGeometry width="30" height="26" as="geometry" />
        </mxCell>
        <mxCell id="i5tXzH6cKKCym1gsXH8T-37" value="constellation" style="shape=partialRectangle;top=0;left=0;right=0;bottom=0;html=1;align=left;verticalAlign=top;fillColor=none;spacingLeft=34;spacingRight=4;whiteSpace=wrap;overflow=hidden;rotatable=0;points=[[0,0.5],[1,0.5]];portConstraint=eastwest;dropTarget=0;strokeColor=default;" vertex="1" parent="i5tXzH6cKKCym1gsXH8T-20">
          <mxGeometry y="190" width="160" height="26" as="geometry" />
        </mxCell>
        <mxCell id="i5tXzH6cKKCym1gsXH8T-38" value="" style="shape=partialRectangle;top=0;left=0;bottom=0;html=1;fillColor=none;align=left;verticalAlign=top;spacingLeft=4;spacingRight=4;whiteSpace=wrap;overflow=hidden;rotatable=0;points=[];portConstraint=eastwest;part=1;strokeColor=default;" vertex="1" connectable="0" parent="i5tXzH6cKKCym1gsXH8T-37">
          <mxGeometry width="30" height="26" as="geometry" />
        </mxCell>
        <mxCell id="i5tXzH6cKKCym1gsXH8T-39" value="galaxy_size" style="shape=partialRectangle;top=0;left=0;right=0;bottom=0;html=1;align=left;verticalAlign=top;fillColor=none;spacingLeft=34;spacingRight=4;whiteSpace=wrap;overflow=hidden;rotatable=0;points=[[0,0.5],[1,0.5]];portConstraint=eastwest;dropTarget=0;strokeColor=default;" vertex="1" parent="i5tXzH6cKKCym1gsXH8T-20">
          <mxGeometry y="216" width="160" height="26" as="geometry" />
        </mxCell>
        <mxCell id="i5tXzH6cKKCym1gsXH8T-40" value="" style="shape=partialRectangle;top=0;left=0;bottom=0;html=1;fillColor=none;align=left;verticalAlign=top;spacingLeft=4;spacingRight=4;whiteSpace=wrap;overflow=hidden;rotatable=0;points=[];portConstraint=eastwest;part=1;strokeColor=default;" vertex="1" connectable="0" parent="i5tXzH6cKKCym1gsXH8T-39">
          <mxGeometry width="30" height="26" as="geometry" />
        </mxCell>
        <mxCell id="i5tXzH6cKKCym1gsXH8T-43" value="discover_date" style="shape=partialRectangle;top=0;left=0;right=0;bottom=0;html=1;align=left;verticalAlign=top;fillColor=none;spacingLeft=34;spacingRight=4;whiteSpace=wrap;overflow=hidden;rotatable=0;points=[[0,0.5],[1,0.5]];portConstraint=eastwest;dropTarget=0;strokeColor=default;" vertex="1" parent="i5tXzH6cKKCym1gsXH8T-20">
          <mxGeometry y="242" width="160" height="26" as="geometry" />
        </mxCell>
        <mxCell id="i5tXzH6cKKCym1gsXH8T-44" value="" style="shape=partialRectangle;top=0;left=0;bottom=0;html=1;fillColor=none;align=left;verticalAlign=top;spacingLeft=4;spacingRight=4;whiteSpace=wrap;overflow=hidden;rotatable=0;points=[];portConstraint=eastwest;part=1;strokeColor=default;" vertex="1" connectable="0" parent="i5tXzH6cKKCym1gsXH8T-43">
          <mxGeometry width="30" height="26" as="geometry" />
        </mxCell>
        <mxCell id="i5tXzH6cKKCym1gsXH8T-45" value="description" style="shape=partialRectangle;top=0;left=0;right=0;bottom=0;html=1;align=left;verticalAlign=top;fillColor=none;spacingLeft=34;spacingRight=4;whiteSpace=wrap;overflow=hidden;rotatable=0;points=[[0,0.5],[1,0.5]];portConstraint=eastwest;dropTarget=0;strokeColor=default;" vertex="1" parent="i5tXzH6cKKCym1gsXH8T-20">
          <mxGeometry y="268" width="160" height="26" as="geometry" />
        </mxCell>
        <mxCell id="i5tXzH6cKKCym1gsXH8T-46" value="" style="shape=partialRectangle;top=0;left=0;bottom=0;html=1;fillColor=none;align=left;verticalAlign=top;spacingLeft=4;spacingRight=4;whiteSpace=wrap;overflow=hidden;rotatable=0;points=[];portConstraint=eastwest;part=1;strokeColor=default;" vertex="1" connectable="0" parent="i5tXzH6cKKCym1gsXH8T-45">
          <mxGeometry width="30" height="26" as="geometry" />
        </mxCell>
        <mxCell id="i5tXzH6cKKCym1gsXH8T-47" value="declination" style="shape=partialRectangle;top=0;left=0;right=0;bottom=0;html=1;align=left;verticalAlign=top;fillColor=none;spacingLeft=34;spacingRight=4;whiteSpace=wrap;overflow=hidden;rotatable=0;points=[[0,0.5],[1,0.5]];portConstraint=eastwest;dropTarget=0;strokeColor=default;" vertex="1" parent="i5tXzH6cKKCym1gsXH8T-20">
          <mxGeometry y="294" width="160" height="26" as="geometry" />
        </mxCell>
        <mxCell id="i5tXzH6cKKCym1gsXH8T-48" value="" style="shape=partialRectangle;top=0;left=0;bottom=0;html=1;fillColor=none;align=left;verticalAlign=top;spacingLeft=4;spacingRight=4;whiteSpace=wrap;overflow=hidden;rotatable=0;points=[];portConstraint=eastwest;part=1;strokeColor=default;" vertex="1" connectable="0" parent="i5tXzH6cKKCym1gsXH8T-47">
          <mxGeometry width="30" height="26" as="geometry" />
        </mxCell>
        <mxCell id="i5tXzH6cKKCym1gsXH8T-49" value="right_ascension" style="shape=partialRectangle;top=0;left=0;right=0;bottom=0;html=1;align=left;verticalAlign=top;fillColor=none;spacingLeft=34;spacingRight=4;whiteSpace=wrap;overflow=hidden;rotatable=0;points=[[0,0.5],[1,0.5]];portConstraint=eastwest;dropTarget=0;strokeColor=default;" vertex="1" parent="i5tXzH6cKKCym1gsXH8T-20">
          <mxGeometry y="320" width="160" height="26" as="geometry" />
        </mxCell>
        <mxCell id="i5tXzH6cKKCym1gsXH8T-50" value="" style="shape=partialRectangle;top=0;left=0;bottom=0;html=1;fillColor=none;align=left;verticalAlign=top;spacingLeft=4;spacingRight=4;whiteSpace=wrap;overflow=hidden;rotatable=0;points=[];portConstraint=eastwest;part=1;strokeColor=default;" vertex="1" connectable="0" parent="i5tXzH6cKKCym1gsXH8T-49">
          <mxGeometry width="30" height="26" as="geometry" />
        </mxCell>
        <mxCell id="i5tXzH6cKKCym1gsXH8T-33" value="init_date" style="shape=partialRectangle;top=0;left=0;right=0;bottom=0;html=1;align=left;verticalAlign=top;fillColor=none;spacingLeft=34;spacingRight=4;whiteSpace=wrap;overflow=hidden;rotatable=0;points=[[0,0.5],[1,0.5]];portConstraint=eastwest;dropTarget=0;strokeColor=default;" vertex="1" parent="i5tXzH6cKKCym1gsXH8T-20">
          <mxGeometry y="346" width="160" height="26" as="geometry" />
        </mxCell>
        <mxCell id="i5tXzH6cKKCym1gsXH8T-34" value="" style="shape=partialRectangle;top=0;left=0;bottom=0;html=1;fillColor=none;align=left;verticalAlign=top;spacingLeft=4;spacingRight=4;whiteSpace=wrap;overflow=hidden;rotatable=0;points=[];portConstraint=eastwest;part=1;strokeColor=default;" vertex="1" connectable="0" parent="i5tXzH6cKKCym1gsXH8T-33">
          <mxGeometry width="30" height="26" as="geometry" />
        </mxCell>
        <mxCell id="i5tXzH6cKKCym1gsXH8T-35" value="" style="shape=partialRectangle;top=0;left=0;right=0;bottom=0;html=1;align=left;verticalAlign=top;fillColor=none;spacingLeft=34;spacingRight=4;whiteSpace=wrap;overflow=hidden;rotatable=0;points=[[0,0.5],[1,0.5]];portConstraint=eastwest;dropTarget=0;strokeColor=default;" vertex="1" parent="i5tXzH6cKKCym1gsXH8T-20">
          <mxGeometry y="372" width="160" height="10" as="geometry" />
        </mxCell>
        <mxCell id="i5tXzH6cKKCym1gsXH8T-36" value="" style="shape=partialRectangle;top=0;left=0;bottom=0;html=1;fillColor=none;align=left;verticalAlign=top;spacingLeft=4;spacingRight=4;whiteSpace=wrap;overflow=hidden;rotatable=0;points=[];portConstraint=eastwest;part=1;strokeColor=default;" vertex="1" connectable="0" parent="i5tXzH6cKKCym1gsXH8T-35">
          <mxGeometry width="30" height="10" as="geometry" />
        </mxCell>
        <mxCell id="i5tXzH6cKKCym1gsXH8T-250" style="edgeStyle=entityRelationEdgeStyle;rounded=1;orthogonalLoop=1;jettySize=auto;html=1;entryX=0;entryY=0.5;entryDx=0;entryDy=0;curved=0;startArrow=ERone;startFill=0;endSize=8;startSize=8;endArrow=ERzeroToMany;endFill=0;exitX=1;exitY=0.5;exitDx=0;exitDy=0;" edge="1" parent="1" source="i5tXzH6cKKCym1gsXH8T-52" target="i5tXzH6cKKCym1gsXH8T-95">
          <mxGeometry relative="1" as="geometry" />
        </mxCell>
        <mxCell id="i5tXzH6cKKCym1gsXH8T-51" value="Star Types" style="swimlane;html=1;fontStyle=0;childLayout=stackLayout;horizontal=1;startSize=26;fillColor=none;horizontalStack=0;resizeParent=1;resizeLast=0;collapsible=1;marginBottom=0;swimlaneFillColor=none;align=center;rounded=0;shadow=0;comic=0;labelBackgroundColor=none;strokeWidth=1;fontFamily=Verdana;fontSize=14;strokeColor=default;" vertex="1" parent="1">
          <mxGeometry x="1600" y="499" width="160" height="274" as="geometry" />
        </mxCell>
        <mxCell id="i5tXzH6cKKCym1gsXH8T-52" value="type_id" style="shape=partialRectangle;top=0;left=0;right=0;bottom=1;html=1;align=left;verticalAlign=middle;fillColor=none;spacingLeft=34;spacingRight=4;whiteSpace=wrap;overflow=hidden;rotatable=0;points=[[0,0.5],[1,0.5]];portConstraint=eastwest;dropTarget=0;fontStyle=5;strokeColor=default;" vertex="1" parent="i5tXzH6cKKCym1gsXH8T-51">
          <mxGeometry y="26" width="160" height="30" as="geometry" />
        </mxCell>
        <mxCell id="i5tXzH6cKKCym1gsXH8T-53" value="PK" style="shape=partialRectangle;top=0;left=0;bottom=0;html=1;fillColor=none;align=left;verticalAlign=middle;spacingLeft=4;spacingRight=4;whiteSpace=wrap;overflow=hidden;rotatable=0;points=[];portConstraint=eastwest;part=1;strokeColor=default;" vertex="1" connectable="0" parent="i5tXzH6cKKCym1gsXH8T-52">
          <mxGeometry width="30" height="30" as="geometry" />
        </mxCell>
        <mxCell id="i5tXzH6cKKCym1gsXH8T-54" value="type_name" style="shape=partialRectangle;top=0;left=0;right=0;bottom=0;html=1;align=left;verticalAlign=top;fillColor=none;spacingLeft=34;spacingRight=4;whiteSpace=wrap;overflow=hidden;rotatable=0;points=[[0,0.5],[1,0.5]];portConstraint=eastwest;dropTarget=0;strokeColor=default;" vertex="1" parent="i5tXzH6cKKCym1gsXH8T-51">
          <mxGeometry y="56" width="160" height="26" as="geometry" />
        </mxCell>
        <mxCell id="i5tXzH6cKKCym1gsXH8T-55" value="" style="shape=partialRectangle;top=0;left=0;bottom=0;html=1;fillColor=none;align=left;verticalAlign=top;spacingLeft=4;spacingRight=4;whiteSpace=wrap;overflow=hidden;rotatable=0;points=[];portConstraint=eastwest;part=1;strokeColor=default;" vertex="1" connectable="0" parent="i5tXzH6cKKCym1gsXH8T-54">
          <mxGeometry width="30" height="26" as="geometry" />
        </mxCell>
        <mxCell id="i5tXzH6cKKCym1gsXH8T-56" value="description" style="shape=partialRectangle;top=0;left=0;right=0;bottom=0;html=1;align=left;verticalAlign=top;fillColor=none;spacingLeft=34;spacingRight=4;whiteSpace=wrap;overflow=hidden;rotatable=0;points=[[0,0.5],[1,0.5]];portConstraint=eastwest;dropTarget=0;strokeColor=default;" vertex="1" parent="i5tXzH6cKKCym1gsXH8T-51">
          <mxGeometry y="82" width="160" height="26" as="geometry" />
        </mxCell>
        <mxCell id="i5tXzH6cKKCym1gsXH8T-57" value="" style="shape=partialRectangle;top=0;left=0;bottom=0;html=1;fillColor=none;align=left;verticalAlign=top;spacingLeft=4;spacingRight=4;whiteSpace=wrap;overflow=hidden;rotatable=0;points=[];portConstraint=eastwest;part=1;strokeColor=default;" vertex="1" connectable="0" parent="i5tXzH6cKKCym1gsXH8T-56">
          <mxGeometry width="30" height="26" as="geometry" />
        </mxCell>
        <mxCell id="i5tXzH6cKKCym1gsXH8T-58" value="typical_temp" style="shape=partialRectangle;top=0;left=0;right=0;bottom=0;html=1;align=left;verticalAlign=top;fillColor=none;spacingLeft=34;spacingRight=4;whiteSpace=wrap;overflow=hidden;rotatable=0;points=[[0,0.5],[1,0.5]];portConstraint=eastwest;dropTarget=0;strokeColor=default;" vertex="1" parent="i5tXzH6cKKCym1gsXH8T-51">
          <mxGeometry y="108" width="160" height="26" as="geometry" />
        </mxCell>
        <mxCell id="i5tXzH6cKKCym1gsXH8T-59" value="" style="shape=partialRectangle;top=0;left=0;bottom=0;html=1;fillColor=none;align=left;verticalAlign=top;spacingLeft=4;spacingRight=4;whiteSpace=wrap;overflow=hidden;rotatable=0;points=[];portConstraint=eastwest;part=1;strokeColor=default;" vertex="1" connectable="0" parent="i5tXzH6cKKCym1gsXH8T-58">
          <mxGeometry width="30" height="26" as="geometry" />
        </mxCell>
        <mxCell id="i5tXzH6cKKCym1gsXH8T-60" value="typical_radius" style="shape=partialRectangle;top=0;left=0;right=0;bottom=0;html=1;align=left;verticalAlign=top;fillColor=none;spacingLeft=34;spacingRight=4;whiteSpace=wrap;overflow=hidden;rotatable=0;points=[[0,0.5],[1,0.5]];portConstraint=eastwest;dropTarget=0;strokeColor=default;" vertex="1" parent="i5tXzH6cKKCym1gsXH8T-51">
          <mxGeometry y="134" width="160" height="26" as="geometry" />
        </mxCell>
        <mxCell id="i5tXzH6cKKCym1gsXH8T-61" value="" style="shape=partialRectangle;top=0;left=0;bottom=0;html=1;fillColor=none;align=left;verticalAlign=top;spacingLeft=4;spacingRight=4;whiteSpace=wrap;overflow=hidden;rotatable=0;points=[];portConstraint=eastwest;part=1;strokeColor=default;" vertex="1" connectable="0" parent="i5tXzH6cKKCym1gsXH8T-60">
          <mxGeometry width="30" height="26" as="geometry" />
        </mxCell>
        <mxCell id="i5tXzH6cKKCym1gsXH8T-62" value="typical_luminosity" style="shape=partialRectangle;top=0;left=0;right=0;bottom=0;html=1;align=left;verticalAlign=top;fillColor=none;spacingLeft=34;spacingRight=4;whiteSpace=wrap;overflow=hidden;rotatable=0;points=[[0,0.5],[1,0.5]];portConstraint=eastwest;dropTarget=0;strokeColor=default;" vertex="1" parent="i5tXzH6cKKCym1gsXH8T-51">
          <mxGeometry y="160" width="160" height="26" as="geometry" />
        </mxCell>
        <mxCell id="i5tXzH6cKKCym1gsXH8T-63" value="" style="shape=partialRectangle;top=0;left=0;bottom=0;html=1;fillColor=none;align=left;verticalAlign=top;spacingLeft=4;spacingRight=4;whiteSpace=wrap;overflow=hidden;rotatable=0;points=[];portConstraint=eastwest;part=1;strokeColor=default;" vertex="1" connectable="0" parent="i5tXzH6cKKCym1gsXH8T-62">
          <mxGeometry width="30" height="26" as="geometry" />
        </mxCell>
        <mxCell id="i5tXzH6cKKCym1gsXH8T-68" value="typical_mass" style="shape=partialRectangle;top=0;left=0;right=0;bottom=0;html=1;align=left;verticalAlign=top;fillColor=none;spacingLeft=34;spacingRight=4;whiteSpace=wrap;overflow=hidden;rotatable=0;points=[[0,0.5],[1,0.5]];portConstraint=eastwest;dropTarget=0;strokeColor=default;" vertex="1" parent="i5tXzH6cKKCym1gsXH8T-51">
          <mxGeometry y="186" width="160" height="26" as="geometry" />
        </mxCell>
        <mxCell id="i5tXzH6cKKCym1gsXH8T-69" value="" style="shape=partialRectangle;top=0;left=0;bottom=0;html=1;fillColor=none;align=left;verticalAlign=top;spacingLeft=4;spacingRight=4;whiteSpace=wrap;overflow=hidden;rotatable=0;points=[];portConstraint=eastwest;part=1;strokeColor=default;" vertex="1" connectable="0" parent="i5tXzH6cKKCym1gsXH8T-68">
          <mxGeometry width="30" height="26" as="geometry" />
        </mxCell>
        <mxCell id="i5tXzH6cKKCym1gsXH8T-70" value="typical_age" style="shape=partialRectangle;top=0;left=0;right=0;bottom=0;html=1;align=left;verticalAlign=top;fillColor=none;spacingLeft=34;spacingRight=4;whiteSpace=wrap;overflow=hidden;rotatable=0;points=[[0,0.5],[1,0.5]];portConstraint=eastwest;dropTarget=0;strokeColor=default;" vertex="1" parent="i5tXzH6cKKCym1gsXH8T-51">
          <mxGeometry y="212" width="160" height="26" as="geometry" />
        </mxCell>
        <mxCell id="i5tXzH6cKKCym1gsXH8T-71" value="" style="shape=partialRectangle;top=0;left=0;bottom=0;html=1;fillColor=none;align=left;verticalAlign=top;spacingLeft=4;spacingRight=4;whiteSpace=wrap;overflow=hidden;rotatable=0;points=[];portConstraint=eastwest;part=1;strokeColor=default;" vertex="1" connectable="0" parent="i5tXzH6cKKCym1gsXH8T-70">
          <mxGeometry width="30" height="26" as="geometry" />
        </mxCell>
        <mxCell id="i5tXzH6cKKCym1gsXH8T-64" value="init_date" style="shape=partialRectangle;top=0;left=0;right=0;bottom=0;html=1;align=left;verticalAlign=top;fillColor=none;spacingLeft=34;spacingRight=4;whiteSpace=wrap;overflow=hidden;rotatable=0;points=[[0,0.5],[1,0.5]];portConstraint=eastwest;dropTarget=0;strokeColor=default;" vertex="1" parent="i5tXzH6cKKCym1gsXH8T-51">
          <mxGeometry y="238" width="160" height="26" as="geometry" />
        </mxCell>
        <mxCell id="i5tXzH6cKKCym1gsXH8T-65" value="" style="shape=partialRectangle;top=0;left=0;bottom=0;html=1;fillColor=none;align=left;verticalAlign=top;spacingLeft=4;spacingRight=4;whiteSpace=wrap;overflow=hidden;rotatable=0;points=[];portConstraint=eastwest;part=1;strokeColor=default;" vertex="1" connectable="0" parent="i5tXzH6cKKCym1gsXH8T-64">
          <mxGeometry width="30" height="26" as="geometry" />
        </mxCell>
        <mxCell id="i5tXzH6cKKCym1gsXH8T-66" value="" style="shape=partialRectangle;top=0;left=0;right=0;bottom=0;html=1;align=left;verticalAlign=top;fillColor=none;spacingLeft=34;spacingRight=4;whiteSpace=wrap;overflow=hidden;rotatable=0;points=[[0,0.5],[1,0.5]];portConstraint=eastwest;dropTarget=0;strokeColor=default;" vertex="1" parent="i5tXzH6cKKCym1gsXH8T-51">
          <mxGeometry y="264" width="160" height="10" as="geometry" />
        </mxCell>
        <mxCell id="i5tXzH6cKKCym1gsXH8T-67" value="" style="shape=partialRectangle;top=0;left=0;bottom=0;html=1;fillColor=none;align=left;verticalAlign=top;spacingLeft=4;spacingRight=4;whiteSpace=wrap;overflow=hidden;rotatable=0;points=[];portConstraint=eastwest;part=1;strokeColor=default;" vertex="1" connectable="0" parent="i5tXzH6cKKCym1gsXH8T-66">
          <mxGeometry width="30" height="10" as="geometry" />
        </mxCell>
        <mxCell id="i5tXzH6cKKCym1gsXH8T-72" value="Stars" style="swimlane;html=1;fontStyle=0;childLayout=stackLayout;horizontal=1;startSize=26;fillColor=none;horizontalStack=0;resizeParent=1;resizeLast=0;collapsible=1;marginBottom=0;swimlaneFillColor=none;align=center;rounded=0;shadow=0;comic=0;labelBackgroundColor=none;strokeWidth=1;fontFamily=Verdana;fontSize=14;strokeColor=default;" vertex="1" parent="1">
          <mxGeometry x="1840" y="298" width="160" height="542" as="geometry" />
        </mxCell>
        <mxCell id="i5tXzH6cKKCym1gsXH8T-73" value="star_id" style="shape=partialRectangle;top=0;left=0;right=0;bottom=1;html=1;align=left;verticalAlign=middle;fillColor=none;spacingLeft=34;spacingRight=4;whiteSpace=wrap;overflow=hidden;rotatable=0;points=[[0,0.5],[1,0.5]];portConstraint=eastwest;dropTarget=0;fontStyle=5;strokeColor=default;" vertex="1" parent="i5tXzH6cKKCym1gsXH8T-72">
          <mxGeometry y="26" width="160" height="30" as="geometry" />
        </mxCell>
        <mxCell id="i5tXzH6cKKCym1gsXH8T-74" value="PK" style="shape=partialRectangle;top=0;left=0;bottom=0;html=1;fillColor=none;align=left;verticalAlign=middle;spacingLeft=4;spacingRight=4;whiteSpace=wrap;overflow=hidden;rotatable=0;points=[];portConstraint=eastwest;part=1;strokeColor=default;" vertex="1" connectable="0" parent="i5tXzH6cKKCym1gsXH8T-73">
          <mxGeometry width="30" height="30" as="geometry" />
        </mxCell>
        <mxCell id="i5tXzH6cKKCym1gsXH8T-97" value="galaxy_id" style="shape=partialRectangle;top=0;left=0;right=0;bottom=1;html=1;align=left;verticalAlign=middle;fillColor=none;spacingLeft=34;spacingRight=4;whiteSpace=wrap;overflow=hidden;rotatable=0;points=[[0,0.5],[1,0.5]];portConstraint=eastwest;dropTarget=0;fontStyle=5;strokeColor=default;" vertex="1" parent="i5tXzH6cKKCym1gsXH8T-72">
          <mxGeometry y="56" width="160" height="30" as="geometry" />
        </mxCell>
        <mxCell id="i5tXzH6cKKCym1gsXH8T-98" value="FK" style="shape=partialRectangle;top=0;left=0;bottom=0;html=1;fillColor=none;align=left;verticalAlign=middle;spacingLeft=4;spacingRight=4;whiteSpace=wrap;overflow=hidden;rotatable=0;points=[];portConstraint=eastwest;part=1;strokeColor=default;" vertex="1" connectable="0" parent="i5tXzH6cKKCym1gsXH8T-97">
          <mxGeometry width="30" height="30" as="geometry" />
        </mxCell>
        <mxCell id="i5tXzH6cKKCym1gsXH8T-95" value="type" style="shape=partialRectangle;top=0;left=0;right=0;bottom=1;html=1;align=left;verticalAlign=middle;fillColor=none;spacingLeft=34;spacingRight=4;whiteSpace=wrap;overflow=hidden;rotatable=0;points=[[0,0.5],[1,0.5]];portConstraint=eastwest;dropTarget=0;fontStyle=5;strokeColor=default;" vertex="1" parent="i5tXzH6cKKCym1gsXH8T-72">
          <mxGeometry y="86" width="160" height="30" as="geometry" />
        </mxCell>
        <mxCell id="i5tXzH6cKKCym1gsXH8T-96" value="FK" style="shape=partialRectangle;top=0;left=0;bottom=0;html=1;fillColor=none;align=left;verticalAlign=middle;spacingLeft=4;spacingRight=4;whiteSpace=wrap;overflow=hidden;rotatable=0;points=[];portConstraint=eastwest;part=1;strokeColor=default;" vertex="1" connectable="0" parent="i5tXzH6cKKCym1gsXH8T-95">
          <mxGeometry width="30" height="30" as="geometry" />
        </mxCell>
        <mxCell id="i5tXzH6cKKCym1gsXH8T-75" value="name" style="shape=partialRectangle;top=0;left=0;right=0;bottom=0;html=1;align=left;verticalAlign=top;fillColor=none;spacingLeft=34;spacingRight=4;whiteSpace=wrap;overflow=hidden;rotatable=0;points=[[0,0.5],[1,0.5]];portConstraint=eastwest;dropTarget=0;strokeColor=default;" vertex="1" parent="i5tXzH6cKKCym1gsXH8T-72">
          <mxGeometry y="116" width="160" height="26" as="geometry" />
        </mxCell>
        <mxCell id="i5tXzH6cKKCym1gsXH8T-76" value="" style="shape=partialRectangle;top=0;left=0;bottom=0;html=1;fillColor=none;align=left;verticalAlign=top;spacingLeft=4;spacingRight=4;whiteSpace=wrap;overflow=hidden;rotatable=0;points=[];portConstraint=eastwest;part=1;strokeColor=default;" vertex="1" connectable="0" parent="i5tXzH6cKKCym1gsXH8T-75">
          <mxGeometry width="30" height="26" as="geometry" />
        </mxCell>
        <mxCell id="i5tXzH6cKKCym1gsXH8T-77" value="mass" style="shape=partialRectangle;top=0;left=0;right=0;bottom=0;html=1;align=left;verticalAlign=top;fillColor=none;spacingLeft=34;spacingRight=4;whiteSpace=wrap;overflow=hidden;rotatable=0;points=[[0,0.5],[1,0.5]];portConstraint=eastwest;dropTarget=0;strokeColor=default;" vertex="1" parent="i5tXzH6cKKCym1gsXH8T-72">
          <mxGeometry y="142" width="160" height="26" as="geometry" />
        </mxCell>
        <mxCell id="i5tXzH6cKKCym1gsXH8T-78" value="" style="shape=partialRectangle;top=0;left=0;bottom=0;html=1;fillColor=none;align=left;verticalAlign=top;spacingLeft=4;spacingRight=4;whiteSpace=wrap;overflow=hidden;rotatable=0;points=[];portConstraint=eastwest;part=1;strokeColor=default;" vertex="1" connectable="0" parent="i5tXzH6cKKCym1gsXH8T-77">
          <mxGeometry width="30" height="26" as="geometry" />
        </mxCell>
        <mxCell id="i5tXzH6cKKCym1gsXH8T-79" value="luminosity" style="shape=partialRectangle;top=0;left=0;right=0;bottom=0;html=1;align=left;verticalAlign=top;fillColor=none;spacingLeft=34;spacingRight=4;whiteSpace=wrap;overflow=hidden;rotatable=0;points=[[0,0.5],[1,0.5]];portConstraint=eastwest;dropTarget=0;strokeColor=default;" vertex="1" parent="i5tXzH6cKKCym1gsXH8T-72">
          <mxGeometry y="168" width="160" height="26" as="geometry" />
        </mxCell>
        <mxCell id="i5tXzH6cKKCym1gsXH8T-80" value="" style="shape=partialRectangle;top=0;left=0;bottom=0;html=1;fillColor=none;align=left;verticalAlign=top;spacingLeft=4;spacingRight=4;whiteSpace=wrap;overflow=hidden;rotatable=0;points=[];portConstraint=eastwest;part=1;strokeColor=default;" vertex="1" connectable="0" parent="i5tXzH6cKKCym1gsXH8T-79">
          <mxGeometry width="30" height="26" as="geometry" />
        </mxCell>
        <mxCell id="i5tXzH6cKKCym1gsXH8T-81" value="radius" style="shape=partialRectangle;top=0;left=0;right=0;bottom=0;html=1;align=left;verticalAlign=top;fillColor=none;spacingLeft=34;spacingRight=4;whiteSpace=wrap;overflow=hidden;rotatable=0;points=[[0,0.5],[1,0.5]];portConstraint=eastwest;dropTarget=0;strokeColor=default;" vertex="1" parent="i5tXzH6cKKCym1gsXH8T-72">
          <mxGeometry y="194" width="160" height="26" as="geometry" />
        </mxCell>
        <mxCell id="i5tXzH6cKKCym1gsXH8T-82" value="" style="shape=partialRectangle;top=0;left=0;bottom=0;html=1;fillColor=none;align=left;verticalAlign=top;spacingLeft=4;spacingRight=4;whiteSpace=wrap;overflow=hidden;rotatable=0;points=[];portConstraint=eastwest;part=1;strokeColor=default;" vertex="1" connectable="0" parent="i5tXzH6cKKCym1gsXH8T-81">
          <mxGeometry width="30" height="26" as="geometry" />
        </mxCell>
        <mxCell id="i5tXzH6cKKCym1gsXH8T-83" value="spectral_type" style="shape=partialRectangle;top=0;left=0;right=0;bottom=0;html=1;align=left;verticalAlign=top;fillColor=none;spacingLeft=34;spacingRight=4;whiteSpace=wrap;overflow=hidden;rotatable=0;points=[[0,0.5],[1,0.5]];portConstraint=eastwest;dropTarget=0;strokeColor=default;" vertex="1" parent="i5tXzH6cKKCym1gsXH8T-72">
          <mxGeometry y="220" width="160" height="26" as="geometry" />
        </mxCell>
        <mxCell id="i5tXzH6cKKCym1gsXH8T-84" value="" style="shape=partialRectangle;top=0;left=0;bottom=0;html=1;fillColor=none;align=left;verticalAlign=top;spacingLeft=4;spacingRight=4;whiteSpace=wrap;overflow=hidden;rotatable=0;points=[];portConstraint=eastwest;part=1;strokeColor=default;" vertex="1" connectable="0" parent="i5tXzH6cKKCym1gsXH8T-83">
          <mxGeometry width="30" height="26" as="geometry" />
        </mxCell>
        <mxCell id="i5tXzH6cKKCym1gsXH8T-208" value="temperature" style="shape=partialRectangle;top=0;left=0;right=0;bottom=0;html=1;align=left;verticalAlign=top;fillColor=none;spacingLeft=34;spacingRight=4;whiteSpace=wrap;overflow=hidden;rotatable=0;points=[[0,0.5],[1,0.5]];portConstraint=eastwest;dropTarget=0;strokeColor=default;" vertex="1" parent="i5tXzH6cKKCym1gsXH8T-72">
          <mxGeometry y="246" width="160" height="26" as="geometry" />
        </mxCell>
        <mxCell id="i5tXzH6cKKCym1gsXH8T-209" value="" style="shape=partialRectangle;top=0;left=0;bottom=0;html=1;fillColor=none;align=left;verticalAlign=top;spacingLeft=4;spacingRight=4;whiteSpace=wrap;overflow=hidden;rotatable=0;points=[];portConstraint=eastwest;part=1;strokeColor=default;" vertex="1" connectable="0" parent="i5tXzH6cKKCym1gsXH8T-208">
          <mxGeometry width="30" height="26" as="geometry" />
        </mxCell>
        <mxCell id="i5tXzH6cKKCym1gsXH8T-85" value="apparent_magnitude" style="shape=partialRectangle;top=0;left=0;right=0;bottom=0;html=1;align=left;verticalAlign=top;fillColor=none;spacingLeft=34;spacingRight=4;whiteSpace=wrap;overflow=hidden;rotatable=0;points=[[0,0.5],[1,0.5]];portConstraint=eastwest;dropTarget=0;strokeColor=default;" vertex="1" parent="i5tXzH6cKKCym1gsXH8T-72">
          <mxGeometry y="272" width="160" height="26" as="geometry" />
        </mxCell>
        <mxCell id="i5tXzH6cKKCym1gsXH8T-86" value="" style="shape=partialRectangle;top=0;left=0;bottom=0;html=1;fillColor=none;align=left;verticalAlign=top;spacingLeft=4;spacingRight=4;whiteSpace=wrap;overflow=hidden;rotatable=0;points=[];portConstraint=eastwest;part=1;strokeColor=default;" vertex="1" connectable="0" parent="i5tXzH6cKKCym1gsXH8T-85">
          <mxGeometry width="30" height="26" as="geometry" />
        </mxCell>
        <mxCell id="i5tXzH6cKKCym1gsXH8T-99" value="absolute_magnitude" style="shape=partialRectangle;top=0;left=0;right=0;bottom=0;html=1;align=left;verticalAlign=top;fillColor=none;spacingLeft=34;spacingRight=4;whiteSpace=wrap;overflow=hidden;rotatable=0;points=[[0,0.5],[1,0.5]];portConstraint=eastwest;dropTarget=0;strokeColor=default;" vertex="1" parent="i5tXzH6cKKCym1gsXH8T-72">
          <mxGeometry y="298" width="160" height="26" as="geometry" />
        </mxCell>
        <mxCell id="i5tXzH6cKKCym1gsXH8T-100" value="" style="shape=partialRectangle;top=0;left=0;bottom=0;html=1;fillColor=none;align=left;verticalAlign=top;spacingLeft=4;spacingRight=4;whiteSpace=wrap;overflow=hidden;rotatable=0;points=[];portConstraint=eastwest;part=1;strokeColor=default;" vertex="1" connectable="0" parent="i5tXzH6cKKCym1gsXH8T-99">
          <mxGeometry width="30" height="26" as="geometry" />
        </mxCell>
        <mxCell id="i5tXzH6cKKCym1gsXH8T-87" value="distance" style="shape=partialRectangle;top=0;left=0;right=0;bottom=0;html=1;align=left;verticalAlign=top;fillColor=none;spacingLeft=34;spacingRight=4;whiteSpace=wrap;overflow=hidden;rotatable=0;points=[[0,0.5],[1,0.5]];portConstraint=eastwest;dropTarget=0;strokeColor=default;" vertex="1" parent="i5tXzH6cKKCym1gsXH8T-72">
          <mxGeometry y="324" width="160" height="26" as="geometry" />
        </mxCell>
        <mxCell id="i5tXzH6cKKCym1gsXH8T-88" value="" style="shape=partialRectangle;top=0;left=0;bottom=0;html=1;fillColor=none;align=left;verticalAlign=top;spacingLeft=4;spacingRight=4;whiteSpace=wrap;overflow=hidden;rotatable=0;points=[];portConstraint=eastwest;part=1;strokeColor=default;" vertex="1" connectable="0" parent="i5tXzH6cKKCym1gsXH8T-87">
          <mxGeometry width="30" height="26" as="geometry" />
        </mxCell>
        <mxCell id="i5tXzH6cKKCym1gsXH8T-101" value="rotation_velocity" style="shape=partialRectangle;top=0;left=0;right=0;bottom=0;html=1;align=left;verticalAlign=top;fillColor=none;spacingLeft=34;spacingRight=4;whiteSpace=wrap;overflow=hidden;rotatable=0;points=[[0,0.5],[1,0.5]];portConstraint=eastwest;dropTarget=0;strokeColor=default;" vertex="1" parent="i5tXzH6cKKCym1gsXH8T-72">
          <mxGeometry y="350" width="160" height="26" as="geometry" />
        </mxCell>
        <mxCell id="i5tXzH6cKKCym1gsXH8T-102" value="" style="shape=partialRectangle;top=0;left=0;bottom=0;html=1;fillColor=none;align=left;verticalAlign=top;spacingLeft=4;spacingRight=4;whiteSpace=wrap;overflow=hidden;rotatable=0;points=[];portConstraint=eastwest;part=1;strokeColor=default;" vertex="1" connectable="0" parent="i5tXzH6cKKCym1gsXH8T-101">
          <mxGeometry width="30" height="26" as="geometry" />
        </mxCell>
        <mxCell id="i5tXzH6cKKCym1gsXH8T-210" value="declination" style="shape=partialRectangle;top=0;left=0;right=0;bottom=0;html=1;align=left;verticalAlign=top;fillColor=none;spacingLeft=34;spacingRight=4;whiteSpace=wrap;overflow=hidden;rotatable=0;points=[[0,0.5],[1,0.5]];portConstraint=eastwest;dropTarget=0;strokeColor=default;" vertex="1" parent="i5tXzH6cKKCym1gsXH8T-72">
          <mxGeometry y="376" width="160" height="26" as="geometry" />
        </mxCell>
        <mxCell id="i5tXzH6cKKCym1gsXH8T-211" value="" style="shape=partialRectangle;top=0;left=0;bottom=0;html=1;fillColor=none;align=left;verticalAlign=top;spacingLeft=4;spacingRight=4;whiteSpace=wrap;overflow=hidden;rotatable=0;points=[];portConstraint=eastwest;part=1;strokeColor=default;" vertex="1" connectable="0" parent="i5tXzH6cKKCym1gsXH8T-210">
          <mxGeometry width="30" height="26" as="geometry" />
        </mxCell>
        <mxCell id="i5tXzH6cKKCym1gsXH8T-212" value="right_acension" style="shape=partialRectangle;top=0;left=0;right=0;bottom=0;html=1;align=left;verticalAlign=top;fillColor=none;spacingLeft=34;spacingRight=4;whiteSpace=wrap;overflow=hidden;rotatable=0;points=[[0,0.5],[1,0.5]];portConstraint=eastwest;dropTarget=0;strokeColor=default;" vertex="1" parent="i5tXzH6cKKCym1gsXH8T-72">
          <mxGeometry y="402" width="160" height="26" as="geometry" />
        </mxCell>
        <mxCell id="i5tXzH6cKKCym1gsXH8T-213" value="" style="shape=partialRectangle;top=0;left=0;bottom=0;html=1;fillColor=none;align=left;verticalAlign=top;spacingLeft=4;spacingRight=4;whiteSpace=wrap;overflow=hidden;rotatable=0;points=[];portConstraint=eastwest;part=1;strokeColor=default;" vertex="1" connectable="0" parent="i5tXzH6cKKCym1gsXH8T-212">
          <mxGeometry width="30" height="26" as="geometry" />
        </mxCell>
        <mxCell id="i5tXzH6cKKCym1gsXH8T-103" value="is_variable" style="shape=partialRectangle;top=0;left=0;right=0;bottom=0;html=1;align=left;verticalAlign=top;fillColor=none;spacingLeft=34;spacingRight=4;whiteSpace=wrap;overflow=hidden;rotatable=0;points=[[0,0.5],[1,0.5]];portConstraint=eastwest;dropTarget=0;strokeColor=default;" vertex="1" parent="i5tXzH6cKKCym1gsXH8T-72">
          <mxGeometry y="428" width="160" height="26" as="geometry" />
        </mxCell>
        <mxCell id="i5tXzH6cKKCym1gsXH8T-104" value="" style="shape=partialRectangle;top=0;left=0;bottom=0;html=1;fillColor=none;align=left;verticalAlign=top;spacingLeft=4;spacingRight=4;whiteSpace=wrap;overflow=hidden;rotatable=0;points=[];portConstraint=eastwest;part=1;strokeColor=default;" vertex="1" connectable="0" parent="i5tXzH6cKKCym1gsXH8T-103">
          <mxGeometry width="30" height="26" as="geometry" />
        </mxCell>
        <mxCell id="i5tXzH6cKKCym1gsXH8T-214" value="discover_date" style="shape=partialRectangle;top=0;left=0;right=0;bottom=0;html=1;align=left;verticalAlign=top;fillColor=none;spacingLeft=34;spacingRight=4;whiteSpace=wrap;overflow=hidden;rotatable=0;points=[[0,0.5],[1,0.5]];portConstraint=eastwest;dropTarget=0;strokeColor=default;" vertex="1" parent="i5tXzH6cKKCym1gsXH8T-72">
          <mxGeometry y="454" width="160" height="26" as="geometry" />
        </mxCell>
        <mxCell id="i5tXzH6cKKCym1gsXH8T-215" value="" style="shape=partialRectangle;top=0;left=0;bottom=0;html=1;fillColor=none;align=left;verticalAlign=top;spacingLeft=4;spacingRight=4;whiteSpace=wrap;overflow=hidden;rotatable=0;points=[];portConstraint=eastwest;part=1;strokeColor=default;" vertex="1" connectable="0" parent="i5tXzH6cKKCym1gsXH8T-214">
          <mxGeometry width="30" height="26" as="geometry" />
        </mxCell>
        <mxCell id="i5tXzH6cKKCym1gsXH8T-105" value="constellation" style="shape=partialRectangle;top=0;left=0;right=0;bottom=0;html=1;align=left;verticalAlign=top;fillColor=none;spacingLeft=34;spacingRight=4;whiteSpace=wrap;overflow=hidden;rotatable=0;points=[[0,0.5],[1,0.5]];portConstraint=eastwest;dropTarget=0;strokeColor=default;" vertex="1" parent="i5tXzH6cKKCym1gsXH8T-72">
          <mxGeometry y="480" width="160" height="26" as="geometry" />
        </mxCell>
        <mxCell id="i5tXzH6cKKCym1gsXH8T-106" value="" style="shape=partialRectangle;top=0;left=0;bottom=0;html=1;fillColor=none;align=left;verticalAlign=top;spacingLeft=4;spacingRight=4;whiteSpace=wrap;overflow=hidden;rotatable=0;points=[];portConstraint=eastwest;part=1;strokeColor=default;" vertex="1" connectable="0" parent="i5tXzH6cKKCym1gsXH8T-105">
          <mxGeometry width="30" height="26" as="geometry" />
        </mxCell>
        <mxCell id="i5tXzH6cKKCym1gsXH8T-89" value="init_date" style="shape=partialRectangle;top=0;left=0;right=0;bottom=0;html=1;align=left;verticalAlign=top;fillColor=none;spacingLeft=34;spacingRight=4;whiteSpace=wrap;overflow=hidden;rotatable=0;points=[[0,0.5],[1,0.5]];portConstraint=eastwest;dropTarget=0;strokeColor=default;" vertex="1" parent="i5tXzH6cKKCym1gsXH8T-72">
          <mxGeometry y="506" width="160" height="26" as="geometry" />
        </mxCell>
        <mxCell id="i5tXzH6cKKCym1gsXH8T-90" value="" style="shape=partialRectangle;top=0;left=0;bottom=0;html=1;fillColor=none;align=left;verticalAlign=top;spacingLeft=4;spacingRight=4;whiteSpace=wrap;overflow=hidden;rotatable=0;points=[];portConstraint=eastwest;part=1;strokeColor=default;" vertex="1" connectable="0" parent="i5tXzH6cKKCym1gsXH8T-89">
          <mxGeometry width="30" height="26" as="geometry" />
        </mxCell>
        <mxCell id="i5tXzH6cKKCym1gsXH8T-91" value="" style="shape=partialRectangle;top=0;left=0;right=0;bottom=0;html=1;align=left;verticalAlign=top;fillColor=none;spacingLeft=34;spacingRight=4;whiteSpace=wrap;overflow=hidden;rotatable=0;points=[[0,0.5],[1,0.5]];portConstraint=eastwest;dropTarget=0;strokeColor=default;" vertex="1" parent="i5tXzH6cKKCym1gsXH8T-72">
          <mxGeometry y="532" width="160" height="10" as="geometry" />
        </mxCell>
        <mxCell id="i5tXzH6cKKCym1gsXH8T-92" value="" style="shape=partialRectangle;top=0;left=0;bottom=0;html=1;fillColor=none;align=left;verticalAlign=top;spacingLeft=4;spacingRight=4;whiteSpace=wrap;overflow=hidden;rotatable=0;points=[];portConstraint=eastwest;part=1;strokeColor=default;" vertex="1" connectable="0" parent="i5tXzH6cKKCym1gsXH8T-91">
          <mxGeometry width="30" height="10" as="geometry" />
        </mxCell>
        <mxCell id="i5tXzH6cKKCym1gsXH8T-107" value="Star Systems" style="swimlane;html=1;fontStyle=0;childLayout=stackLayout;horizontal=1;startSize=26;fillColor=none;horizontalStack=0;resizeParent=1;resizeLast=0;collapsible=1;marginBottom=0;swimlaneFillColor=none;align=center;rounded=0;shadow=0;comic=0;labelBackgroundColor=none;strokeWidth=1;fontFamily=Verdana;fontSize=14;strokeColor=default;" vertex="1" parent="1">
          <mxGeometry x="2080" y="208" width="160" height="372" as="geometry" />
        </mxCell>
        <mxCell id="i5tXzH6cKKCym1gsXH8T-108" value="system_id" style="shape=partialRectangle;top=0;left=0;right=0;bottom=1;html=1;align=left;verticalAlign=middle;fillColor=none;spacingLeft=34;spacingRight=4;whiteSpace=wrap;overflow=hidden;rotatable=0;points=[[0,0.5],[1,0.5]];portConstraint=eastwest;dropTarget=0;fontStyle=5;strokeColor=default;" vertex="1" parent="i5tXzH6cKKCym1gsXH8T-107">
          <mxGeometry y="26" width="160" height="30" as="geometry" />
        </mxCell>
        <mxCell id="i5tXzH6cKKCym1gsXH8T-109" value="PK" style="shape=partialRectangle;top=0;left=0;bottom=0;html=1;fillColor=none;align=left;verticalAlign=middle;spacingLeft=4;spacingRight=4;whiteSpace=wrap;overflow=hidden;rotatable=0;points=[];portConstraint=eastwest;part=1;strokeColor=default;" vertex="1" connectable="0" parent="i5tXzH6cKKCym1gsXH8T-108">
          <mxGeometry width="30" height="30" as="geometry" />
        </mxCell>
        <mxCell id="i5tXzH6cKKCym1gsXH8T-128" value="first_star_id" style="shape=partialRectangle;top=0;left=0;right=0;bottom=1;html=1;align=left;verticalAlign=middle;fillColor=none;spacingLeft=34;spacingRight=4;whiteSpace=wrap;overflow=hidden;rotatable=0;points=[[0,0.5],[1,0.5]];portConstraint=eastwest;dropTarget=0;fontStyle=5;strokeColor=default;" vertex="1" parent="i5tXzH6cKKCym1gsXH8T-107">
          <mxGeometry y="56" width="160" height="30" as="geometry" />
        </mxCell>
        <mxCell id="i5tXzH6cKKCym1gsXH8T-129" value="FK" style="shape=partialRectangle;top=0;left=0;bottom=0;html=1;fillColor=none;align=left;verticalAlign=middle;spacingLeft=4;spacingRight=4;whiteSpace=wrap;overflow=hidden;rotatable=0;points=[];portConstraint=eastwest;part=1;strokeColor=default;" vertex="1" connectable="0" parent="i5tXzH6cKKCym1gsXH8T-128">
          <mxGeometry width="30" height="30" as="geometry" />
        </mxCell>
        <mxCell id="i5tXzH6cKKCym1gsXH8T-132" value="second_star_id" style="shape=partialRectangle;top=0;left=0;right=0;bottom=1;html=1;align=left;verticalAlign=middle;fillColor=none;spacingLeft=34;spacingRight=4;whiteSpace=wrap;overflow=hidden;rotatable=0;points=[[0,0.5],[1,0.5]];portConstraint=eastwest;dropTarget=0;fontStyle=5;strokeColor=default;" vertex="1" parent="i5tXzH6cKKCym1gsXH8T-107">
          <mxGeometry y="86" width="160" height="30" as="geometry" />
        </mxCell>
        <mxCell id="i5tXzH6cKKCym1gsXH8T-133" value="FK" style="shape=partialRectangle;top=0;left=0;bottom=0;html=1;fillColor=none;align=left;verticalAlign=middle;spacingLeft=4;spacingRight=4;whiteSpace=wrap;overflow=hidden;rotatable=0;points=[];portConstraint=eastwest;part=1;strokeColor=default;" vertex="1" connectable="0" parent="i5tXzH6cKKCym1gsXH8T-132">
          <mxGeometry width="30" height="30" as="geometry" />
        </mxCell>
        <mxCell id="i5tXzH6cKKCym1gsXH8T-130" value="third_star_id" style="shape=partialRectangle;top=0;left=0;right=0;bottom=1;html=1;align=left;verticalAlign=middle;fillColor=none;spacingLeft=34;spacingRight=4;whiteSpace=wrap;overflow=hidden;rotatable=0;points=[[0,0.5],[1,0.5]];portConstraint=eastwest;dropTarget=0;fontStyle=5;strokeColor=default;" vertex="1" parent="i5tXzH6cKKCym1gsXH8T-107">
          <mxGeometry y="116" width="160" height="30" as="geometry" />
        </mxCell>
        <mxCell id="i5tXzH6cKKCym1gsXH8T-131" value="FK" style="shape=partialRectangle;top=0;left=0;bottom=0;html=1;fillColor=none;align=left;verticalAlign=middle;spacingLeft=4;spacingRight=4;whiteSpace=wrap;overflow=hidden;rotatable=0;points=[];portConstraint=eastwest;part=1;strokeColor=default;" vertex="1" connectable="0" parent="i5tXzH6cKKCym1gsXH8T-130">
          <mxGeometry width="30" height="30" as="geometry" />
        </mxCell>
        <mxCell id="i5tXzH6cKKCym1gsXH8T-134" value="fourth_star_id" style="shape=partialRectangle;top=0;left=0;right=0;bottom=1;html=1;align=left;verticalAlign=middle;fillColor=none;spacingLeft=34;spacingRight=4;whiteSpace=wrap;overflow=hidden;rotatable=0;points=[[0,0.5],[1,0.5]];portConstraint=eastwest;dropTarget=0;fontStyle=5;strokeColor=default;" vertex="1" parent="i5tXzH6cKKCym1gsXH8T-107">
          <mxGeometry y="146" width="160" height="30" as="geometry" />
        </mxCell>
        <mxCell id="i5tXzH6cKKCym1gsXH8T-135" value="FK" style="shape=partialRectangle;top=0;left=0;bottom=0;html=1;fillColor=none;align=left;verticalAlign=middle;spacingLeft=4;spacingRight=4;whiteSpace=wrap;overflow=hidden;rotatable=0;points=[];portConstraint=eastwest;part=1;strokeColor=default;" vertex="1" connectable="0" parent="i5tXzH6cKKCym1gsXH8T-134">
          <mxGeometry width="30" height="30" as="geometry" />
        </mxCell>
        <mxCell id="i5tXzH6cKKCym1gsXH8T-136" value="fifth_star_id" style="shape=partialRectangle;top=0;left=0;right=0;bottom=1;html=1;align=left;verticalAlign=middle;fillColor=none;spacingLeft=34;spacingRight=4;whiteSpace=wrap;overflow=hidden;rotatable=0;points=[[0,0.5],[1,0.5]];portConstraint=eastwest;dropTarget=0;fontStyle=5;strokeColor=default;" vertex="1" parent="i5tXzH6cKKCym1gsXH8T-107">
          <mxGeometry y="176" width="160" height="30" as="geometry" />
        </mxCell>
        <mxCell id="i5tXzH6cKKCym1gsXH8T-137" value="FK" style="shape=partialRectangle;top=0;left=0;bottom=0;html=1;fillColor=none;align=left;verticalAlign=middle;spacingLeft=4;spacingRight=4;whiteSpace=wrap;overflow=hidden;rotatable=0;points=[];portConstraint=eastwest;part=1;strokeColor=default;" vertex="1" connectable="0" parent="i5tXzH6cKKCym1gsXH8T-136">
          <mxGeometry width="30" height="30" as="geometry" />
        </mxCell>
        <mxCell id="i5tXzH6cKKCym1gsXH8T-110" value="name" style="shape=partialRectangle;top=0;left=0;right=0;bottom=0;html=1;align=left;verticalAlign=top;fillColor=none;spacingLeft=34;spacingRight=4;whiteSpace=wrap;overflow=hidden;rotatable=0;points=[[0,0.5],[1,0.5]];portConstraint=eastwest;dropTarget=0;strokeColor=default;" vertex="1" parent="i5tXzH6cKKCym1gsXH8T-107">
          <mxGeometry y="206" width="160" height="26" as="geometry" />
        </mxCell>
        <mxCell id="i5tXzH6cKKCym1gsXH8T-111" value="" style="shape=partialRectangle;top=0;left=0;bottom=0;html=1;fillColor=none;align=left;verticalAlign=top;spacingLeft=4;spacingRight=4;whiteSpace=wrap;overflow=hidden;rotatable=0;points=[];portConstraint=eastwest;part=1;strokeColor=default;" vertex="1" connectable="0" parent="i5tXzH6cKKCym1gsXH8T-110">
          <mxGeometry width="30" height="26" as="geometry" />
        </mxCell>
        <mxCell id="i5tXzH6cKKCym1gsXH8T-112" value="number_of_stars" style="shape=partialRectangle;top=0;left=0;right=0;bottom=0;html=1;align=left;verticalAlign=top;fillColor=none;spacingLeft=34;spacingRight=4;whiteSpace=wrap;overflow=hidden;rotatable=0;points=[[0,0.5],[1,0.5]];portConstraint=eastwest;dropTarget=0;strokeColor=default;" vertex="1" parent="i5tXzH6cKKCym1gsXH8T-107">
          <mxGeometry y="232" width="160" height="26" as="geometry" />
        </mxCell>
        <mxCell id="i5tXzH6cKKCym1gsXH8T-113" value="" style="shape=partialRectangle;top=0;left=0;bottom=0;html=1;fillColor=none;align=left;verticalAlign=top;spacingLeft=4;spacingRight=4;whiteSpace=wrap;overflow=hidden;rotatable=0;points=[];portConstraint=eastwest;part=1;strokeColor=default;" vertex="1" connectable="0" parent="i5tXzH6cKKCym1gsXH8T-112">
          <mxGeometry width="30" height="26" as="geometry" />
        </mxCell>
        <mxCell id="i5tXzH6cKKCym1gsXH8T-114" value="system_age" style="shape=partialRectangle;top=0;left=0;right=0;bottom=0;html=1;align=left;verticalAlign=top;fillColor=none;spacingLeft=34;spacingRight=4;whiteSpace=wrap;overflow=hidden;rotatable=0;points=[[0,0.5],[1,0.5]];portConstraint=eastwest;dropTarget=0;strokeColor=default;" vertex="1" parent="i5tXzH6cKKCym1gsXH8T-107">
          <mxGeometry y="258" width="160" height="26" as="geometry" />
        </mxCell>
        <mxCell id="i5tXzH6cKKCym1gsXH8T-115" value="" style="shape=partialRectangle;top=0;left=0;bottom=0;html=1;fillColor=none;align=left;verticalAlign=top;spacingLeft=4;spacingRight=4;whiteSpace=wrap;overflow=hidden;rotatable=0;points=[];portConstraint=eastwest;part=1;strokeColor=default;" vertex="1" connectable="0" parent="i5tXzH6cKKCym1gsXH8T-114">
          <mxGeometry width="30" height="26" as="geometry" />
        </mxCell>
        <mxCell id="i5tXzH6cKKCym1gsXH8T-116" value="distance" style="shape=partialRectangle;top=0;left=0;right=0;bottom=0;html=1;align=left;verticalAlign=top;fillColor=none;spacingLeft=34;spacingRight=4;whiteSpace=wrap;overflow=hidden;rotatable=0;points=[[0,0.5],[1,0.5]];portConstraint=eastwest;dropTarget=0;strokeColor=default;" vertex="1" parent="i5tXzH6cKKCym1gsXH8T-107">
          <mxGeometry y="284" width="160" height="26" as="geometry" />
        </mxCell>
        <mxCell id="i5tXzH6cKKCym1gsXH8T-117" value="" style="shape=partialRectangle;top=0;left=0;bottom=0;html=1;fillColor=none;align=left;verticalAlign=top;spacingLeft=4;spacingRight=4;whiteSpace=wrap;overflow=hidden;rotatable=0;points=[];portConstraint=eastwest;part=1;strokeColor=default;" vertex="1" connectable="0" parent="i5tXzH6cKKCym1gsXH8T-116">
          <mxGeometry width="30" height="26" as="geometry" />
        </mxCell>
        <mxCell id="i5tXzH6cKKCym1gsXH8T-118" value="type_name" style="shape=partialRectangle;top=0;left=0;right=0;bottom=0;html=1;align=left;verticalAlign=top;fillColor=none;spacingLeft=34;spacingRight=4;whiteSpace=wrap;overflow=hidden;rotatable=0;points=[[0,0.5],[1,0.5]];portConstraint=eastwest;dropTarget=0;strokeColor=default;" vertex="1" parent="i5tXzH6cKKCym1gsXH8T-107">
          <mxGeometry y="310" width="160" height="26" as="geometry" />
        </mxCell>
        <mxCell id="i5tXzH6cKKCym1gsXH8T-119" value="" style="shape=partialRectangle;top=0;left=0;bottom=0;html=1;fillColor=none;align=left;verticalAlign=top;spacingLeft=4;spacingRight=4;whiteSpace=wrap;overflow=hidden;rotatable=0;points=[];portConstraint=eastwest;part=1;strokeColor=default;" vertex="1" connectable="0" parent="i5tXzH6cKKCym1gsXH8T-118">
          <mxGeometry width="30" height="26" as="geometry" />
        </mxCell>
        <mxCell id="i5tXzH6cKKCym1gsXH8T-124" value="init_date" style="shape=partialRectangle;top=0;left=0;right=0;bottom=0;html=1;align=left;verticalAlign=top;fillColor=none;spacingLeft=34;spacingRight=4;whiteSpace=wrap;overflow=hidden;rotatable=0;points=[[0,0.5],[1,0.5]];portConstraint=eastwest;dropTarget=0;strokeColor=default;" vertex="1" parent="i5tXzH6cKKCym1gsXH8T-107">
          <mxGeometry y="336" width="160" height="26" as="geometry" />
        </mxCell>
        <mxCell id="i5tXzH6cKKCym1gsXH8T-125" value="" style="shape=partialRectangle;top=0;left=0;bottom=0;html=1;fillColor=none;align=left;verticalAlign=top;spacingLeft=4;spacingRight=4;whiteSpace=wrap;overflow=hidden;rotatable=0;points=[];portConstraint=eastwest;part=1;strokeColor=default;" vertex="1" connectable="0" parent="i5tXzH6cKKCym1gsXH8T-124">
          <mxGeometry width="30" height="26" as="geometry" />
        </mxCell>
        <mxCell id="i5tXzH6cKKCym1gsXH8T-126" value="" style="shape=partialRectangle;top=0;left=0;right=0;bottom=0;html=1;align=left;verticalAlign=top;fillColor=none;spacingLeft=34;spacingRight=4;whiteSpace=wrap;overflow=hidden;rotatable=0;points=[[0,0.5],[1,0.5]];portConstraint=eastwest;dropTarget=0;strokeColor=default;" vertex="1" parent="i5tXzH6cKKCym1gsXH8T-107">
          <mxGeometry y="362" width="160" height="10" as="geometry" />
        </mxCell>
        <mxCell id="i5tXzH6cKKCym1gsXH8T-127" value="" style="shape=partialRectangle;top=0;left=0;bottom=0;html=1;fillColor=none;align=left;verticalAlign=top;spacingLeft=4;spacingRight=4;whiteSpace=wrap;overflow=hidden;rotatable=0;points=[];portConstraint=eastwest;part=1;strokeColor=default;" vertex="1" connectable="0" parent="i5tXzH6cKKCym1gsXH8T-126">
          <mxGeometry width="30" height="10" as="geometry" />
        </mxCell>
        <mxCell id="i5tXzH6cKKCym1gsXH8T-138" value="Planets" style="swimlane;html=1;fontStyle=0;childLayout=stackLayout;horizontal=1;startSize=26;fillColor=none;horizontalStack=0;resizeParent=1;resizeLast=0;collapsible=1;marginBottom=0;swimlaneFillColor=none;align=center;rounded=0;shadow=0;comic=0;labelBackgroundColor=none;strokeWidth=1;fontFamily=Verdana;fontSize=14;strokeColor=default;" vertex="1" parent="1">
          <mxGeometry x="2330" y="76" width="160" height="906" as="geometry" />
        </mxCell>
        <mxCell id="i5tXzH6cKKCym1gsXH8T-139" value="star_id" style="shape=partialRectangle;top=0;left=0;right=0;bottom=1;html=1;align=left;verticalAlign=middle;fillColor=none;spacingLeft=34;spacingRight=4;whiteSpace=wrap;overflow=hidden;rotatable=0;points=[[0,0.5],[1,0.5]];portConstraint=eastwest;dropTarget=0;fontStyle=5;strokeColor=default;" vertex="1" parent="i5tXzH6cKKCym1gsXH8T-138">
          <mxGeometry y="26" width="160" height="30" as="geometry" />
        </mxCell>
        <mxCell id="i5tXzH6cKKCym1gsXH8T-140" value="PK" style="shape=partialRectangle;top=0;left=0;bottom=0;html=1;fillColor=none;align=left;verticalAlign=middle;spacingLeft=4;spacingRight=4;whiteSpace=wrap;overflow=hidden;rotatable=0;points=[];portConstraint=eastwest;part=1;strokeColor=default;" vertex="1" connectable="0" parent="i5tXzH6cKKCym1gsXH8T-139">
          <mxGeometry width="30" height="30" as="geometry" />
        </mxCell>
        <mxCell id="i5tXzH6cKKCym1gsXH8T-192" value="system_id" style="shape=partialRectangle;top=0;left=0;right=0;bottom=1;html=1;align=left;verticalAlign=middle;fillColor=none;spacingLeft=34;spacingRight=4;whiteSpace=wrap;overflow=hidden;rotatable=0;points=[[0,0.5],[1,0.5]];portConstraint=eastwest;dropTarget=0;fontStyle=5;strokeColor=default;" vertex="1" parent="i5tXzH6cKKCym1gsXH8T-138">
          <mxGeometry y="56" width="160" height="30" as="geometry" />
        </mxCell>
        <mxCell id="i5tXzH6cKKCym1gsXH8T-193" value="FK" style="shape=partialRectangle;top=0;left=0;bottom=0;html=1;fillColor=none;align=left;verticalAlign=middle;spacingLeft=4;spacingRight=4;whiteSpace=wrap;overflow=hidden;rotatable=0;points=[];portConstraint=eastwest;part=1;strokeColor=default;" vertex="1" connectable="0" parent="i5tXzH6cKKCym1gsXH8T-192">
          <mxGeometry width="30" height="30" as="geometry" />
        </mxCell>
        <mxCell id="i5tXzH6cKKCym1gsXH8T-141" value="type" style="shape=partialRectangle;top=0;left=0;right=0;bottom=1;html=1;align=left;verticalAlign=middle;fillColor=none;spacingLeft=34;spacingRight=4;whiteSpace=wrap;overflow=hidden;rotatable=0;points=[[0,0.5],[1,0.5]];portConstraint=eastwest;dropTarget=0;fontStyle=5;strokeColor=default;" vertex="1" parent="i5tXzH6cKKCym1gsXH8T-138">
          <mxGeometry y="86" width="160" height="30" as="geometry" />
        </mxCell>
        <mxCell id="i5tXzH6cKKCym1gsXH8T-142" value="FK" style="shape=partialRectangle;top=0;left=0;bottom=0;html=1;fillColor=none;align=left;verticalAlign=middle;spacingLeft=4;spacingRight=4;whiteSpace=wrap;overflow=hidden;rotatable=0;points=[];portConstraint=eastwest;part=1;strokeColor=default;" vertex="1" connectable="0" parent="i5tXzH6cKKCym1gsXH8T-141">
          <mxGeometry width="30" height="30" as="geometry" />
        </mxCell>
        <mxCell id="i5tXzH6cKKCym1gsXH8T-145" value="name" style="shape=partialRectangle;top=0;left=0;right=0;bottom=0;html=1;align=left;verticalAlign=top;fillColor=none;spacingLeft=34;spacingRight=4;whiteSpace=wrap;overflow=hidden;rotatable=0;points=[[0,0.5],[1,0.5]];portConstraint=eastwest;dropTarget=0;strokeColor=default;" vertex="1" parent="i5tXzH6cKKCym1gsXH8T-138">
          <mxGeometry y="116" width="160" height="26" as="geometry" />
        </mxCell>
        <mxCell id="i5tXzH6cKKCym1gsXH8T-146" value="" style="shape=partialRectangle;top=0;left=0;bottom=0;html=1;fillColor=none;align=left;verticalAlign=top;spacingLeft=4;spacingRight=4;whiteSpace=wrap;overflow=hidden;rotatable=0;points=[];portConstraint=eastwest;part=1;strokeColor=default;" vertex="1" connectable="0" parent="i5tXzH6cKKCym1gsXH8T-145">
          <mxGeometry width="30" height="26" as="geometry" />
        </mxCell>
        <mxCell id="i5tXzH6cKKCym1gsXH8T-246" value="description" style="shape=partialRectangle;top=0;left=0;right=0;bottom=0;html=1;align=left;verticalAlign=top;fillColor=none;spacingLeft=34;spacingRight=4;whiteSpace=wrap;overflow=hidden;rotatable=0;points=[[0,0.5],[1,0.5]];portConstraint=eastwest;dropTarget=0;strokeColor=default;" vertex="1" parent="i5tXzH6cKKCym1gsXH8T-138">
          <mxGeometry y="142" width="160" height="26" as="geometry" />
        </mxCell>
        <mxCell id="i5tXzH6cKKCym1gsXH8T-247" value="" style="shape=partialRectangle;top=0;left=0;bottom=0;html=1;fillColor=none;align=left;verticalAlign=top;spacingLeft=4;spacingRight=4;whiteSpace=wrap;overflow=hidden;rotatable=0;points=[];portConstraint=eastwest;part=1;strokeColor=default;" vertex="1" connectable="0" parent="i5tXzH6cKKCym1gsXH8T-246">
          <mxGeometry width="30" height="26" as="geometry" />
        </mxCell>
        <mxCell id="i5tXzH6cKKCym1gsXH8T-147" value="mass" style="shape=partialRectangle;top=0;left=0;right=0;bottom=0;html=1;align=left;verticalAlign=top;fillColor=none;spacingLeft=34;spacingRight=4;whiteSpace=wrap;overflow=hidden;rotatable=0;points=[[0,0.5],[1,0.5]];portConstraint=eastwest;dropTarget=0;strokeColor=default;" vertex="1" parent="i5tXzH6cKKCym1gsXH8T-138">
          <mxGeometry y="168" width="160" height="26" as="geometry" />
        </mxCell>
        <mxCell id="i5tXzH6cKKCym1gsXH8T-148" value="" style="shape=partialRectangle;top=0;left=0;bottom=0;html=1;fillColor=none;align=left;verticalAlign=top;spacingLeft=4;spacingRight=4;whiteSpace=wrap;overflow=hidden;rotatable=0;points=[];portConstraint=eastwest;part=1;strokeColor=default;" vertex="1" connectable="0" parent="i5tXzH6cKKCym1gsXH8T-147">
          <mxGeometry width="30" height="26" as="geometry" />
        </mxCell>
        <mxCell id="i5tXzH6cKKCym1gsXH8T-151" value="radius" style="shape=partialRectangle;top=0;left=0;right=0;bottom=0;html=1;align=left;verticalAlign=top;fillColor=none;spacingLeft=34;spacingRight=4;whiteSpace=wrap;overflow=hidden;rotatable=0;points=[[0,0.5],[1,0.5]];portConstraint=eastwest;dropTarget=0;strokeColor=default;" vertex="1" parent="i5tXzH6cKKCym1gsXH8T-138">
          <mxGeometry y="194" width="160" height="26" as="geometry" />
        </mxCell>
        <mxCell id="i5tXzH6cKKCym1gsXH8T-152" value="" style="shape=partialRectangle;top=0;left=0;bottom=0;html=1;fillColor=none;align=left;verticalAlign=top;spacingLeft=4;spacingRight=4;whiteSpace=wrap;overflow=hidden;rotatable=0;points=[];portConstraint=eastwest;part=1;strokeColor=default;" vertex="1" connectable="0" parent="i5tXzH6cKKCym1gsXH8T-151">
          <mxGeometry width="30" height="26" as="geometry" />
        </mxCell>
        <mxCell id="i5tXzH6cKKCym1gsXH8T-149" value="luminosity_albedo" style="shape=partialRectangle;top=0;left=0;right=0;bottom=0;html=1;align=left;verticalAlign=top;fillColor=none;spacingLeft=34;spacingRight=4;whiteSpace=wrap;overflow=hidden;rotatable=0;points=[[0,0.5],[1,0.5]];portConstraint=eastwest;dropTarget=0;strokeColor=default;" vertex="1" parent="i5tXzH6cKKCym1gsXH8T-138">
          <mxGeometry y="220" width="160" height="26" as="geometry" />
        </mxCell>
        <mxCell id="i5tXzH6cKKCym1gsXH8T-150" value="" style="shape=partialRectangle;top=0;left=0;bottom=0;html=1;fillColor=none;align=left;verticalAlign=top;spacingLeft=4;spacingRight=4;whiteSpace=wrap;overflow=hidden;rotatable=0;points=[];portConstraint=eastwest;part=1;strokeColor=default;" vertex="1" connectable="0" parent="i5tXzH6cKKCym1gsXH8T-149">
          <mxGeometry width="30" height="26" as="geometry" />
        </mxCell>
        <mxCell id="i5tXzH6cKKCym1gsXH8T-153" value="orbital_period" style="shape=partialRectangle;top=0;left=0;right=0;bottom=0;html=1;align=left;verticalAlign=top;fillColor=none;spacingLeft=34;spacingRight=4;whiteSpace=wrap;overflow=hidden;rotatable=0;points=[[0,0.5],[1,0.5]];portConstraint=eastwest;dropTarget=0;strokeColor=default;" vertex="1" parent="i5tXzH6cKKCym1gsXH8T-138">
          <mxGeometry y="246" width="160" height="26" as="geometry" />
        </mxCell>
        <mxCell id="i5tXzH6cKKCym1gsXH8T-154" value="" style="shape=partialRectangle;top=0;left=0;bottom=0;html=1;fillColor=none;align=left;verticalAlign=top;spacingLeft=4;spacingRight=4;whiteSpace=wrap;overflow=hidden;rotatable=0;points=[];portConstraint=eastwest;part=1;strokeColor=default;" vertex="1" connectable="0" parent="i5tXzH6cKKCym1gsXH8T-153">
          <mxGeometry width="30" height="26" as="geometry" />
        </mxCell>
        <mxCell id="i5tXzH6cKKCym1gsXH8T-220" value="orbital_distance" style="shape=partialRectangle;top=0;left=0;right=0;bottom=0;html=1;align=left;verticalAlign=top;fillColor=none;spacingLeft=34;spacingRight=4;whiteSpace=wrap;overflow=hidden;rotatable=0;points=[[0,0.5],[1,0.5]];portConstraint=eastwest;dropTarget=0;strokeColor=default;" vertex="1" parent="i5tXzH6cKKCym1gsXH8T-138">
          <mxGeometry y="272" width="160" height="26" as="geometry" />
        </mxCell>
        <mxCell id="i5tXzH6cKKCym1gsXH8T-221" value="" style="shape=partialRectangle;top=0;left=0;bottom=0;html=1;fillColor=none;align=left;verticalAlign=top;spacingLeft=4;spacingRight=4;whiteSpace=wrap;overflow=hidden;rotatable=0;points=[];portConstraint=eastwest;part=1;strokeColor=default;" vertex="1" connectable="0" parent="i5tXzH6cKKCym1gsXH8T-220">
          <mxGeometry width="30" height="26" as="geometry" />
        </mxCell>
        <mxCell id="i5tXzH6cKKCym1gsXH8T-200" value="orbital_eccentricity" style="shape=partialRectangle;top=0;left=0;right=0;bottom=0;html=1;align=left;verticalAlign=top;fillColor=none;spacingLeft=34;spacingRight=4;whiteSpace=wrap;overflow=hidden;rotatable=0;points=[[0,0.5],[1,0.5]];portConstraint=eastwest;dropTarget=0;strokeColor=default;" vertex="1" parent="i5tXzH6cKKCym1gsXH8T-138">
          <mxGeometry y="298" width="160" height="26" as="geometry" />
        </mxCell>
        <mxCell id="i5tXzH6cKKCym1gsXH8T-201" value="" style="shape=partialRectangle;top=0;left=0;bottom=0;html=1;fillColor=none;align=left;verticalAlign=top;spacingLeft=4;spacingRight=4;whiteSpace=wrap;overflow=hidden;rotatable=0;points=[];portConstraint=eastwest;part=1;strokeColor=default;" vertex="1" connectable="0" parent="i5tXzH6cKKCym1gsXH8T-200">
          <mxGeometry width="30" height="26" as="geometry" />
        </mxCell>
        <mxCell id="i5tXzH6cKKCym1gsXH8T-202" value="orbital_inclination" style="shape=partialRectangle;top=0;left=0;right=0;bottom=0;html=1;align=left;verticalAlign=top;fillColor=none;spacingLeft=34;spacingRight=4;whiteSpace=wrap;overflow=hidden;rotatable=0;points=[[0,0.5],[1,0.5]];portConstraint=eastwest;dropTarget=0;strokeColor=default;" vertex="1" parent="i5tXzH6cKKCym1gsXH8T-138">
          <mxGeometry y="324" width="160" height="26" as="geometry" />
        </mxCell>
        <mxCell id="i5tXzH6cKKCym1gsXH8T-203" value="" style="shape=partialRectangle;top=0;left=0;bottom=0;html=1;fillColor=none;align=left;verticalAlign=top;spacingLeft=4;spacingRight=4;whiteSpace=wrap;overflow=hidden;rotatable=0;points=[];portConstraint=eastwest;part=1;strokeColor=default;" vertex="1" connectable="0" parent="i5tXzH6cKKCym1gsXH8T-202">
          <mxGeometry width="30" height="26" as="geometry" />
        </mxCell>
        <mxCell id="i5tXzH6cKKCym1gsXH8T-226" value="orbital_longitude" style="shape=partialRectangle;top=0;left=0;right=0;bottom=0;html=1;align=left;verticalAlign=top;fillColor=none;spacingLeft=34;spacingRight=4;whiteSpace=wrap;overflow=hidden;rotatable=0;points=[[0,0.5],[1,0.5]];portConstraint=eastwest;dropTarget=0;strokeColor=default;" vertex="1" parent="i5tXzH6cKKCym1gsXH8T-138">
          <mxGeometry y="350" width="160" height="26" as="geometry" />
        </mxCell>
        <mxCell id="i5tXzH6cKKCym1gsXH8T-227" value="" style="shape=partialRectangle;top=0;left=0;bottom=0;html=1;fillColor=none;align=left;verticalAlign=top;spacingLeft=4;spacingRight=4;whiteSpace=wrap;overflow=hidden;rotatable=0;points=[];portConstraint=eastwest;part=1;strokeColor=default;" vertex="1" connectable="0" parent="i5tXzH6cKKCym1gsXH8T-226">
          <mxGeometry width="30" height="26" as="geometry" />
        </mxCell>
        <mxCell id="i5tXzH6cKKCym1gsXH8T-224" value="orbital_periapsis" style="shape=partialRectangle;top=0;left=0;right=0;bottom=0;html=1;align=left;verticalAlign=top;fillColor=none;spacingLeft=34;spacingRight=4;whiteSpace=wrap;overflow=hidden;rotatable=0;points=[[0,0.5],[1,0.5]];portConstraint=eastwest;dropTarget=0;strokeColor=default;" vertex="1" parent="i5tXzH6cKKCym1gsXH8T-138">
          <mxGeometry y="376" width="160" height="26" as="geometry" />
        </mxCell>
        <mxCell id="i5tXzH6cKKCym1gsXH8T-225" value="" style="shape=partialRectangle;top=0;left=0;bottom=0;html=1;fillColor=none;align=left;verticalAlign=top;spacingLeft=4;spacingRight=4;whiteSpace=wrap;overflow=hidden;rotatable=0;points=[];portConstraint=eastwest;part=1;strokeColor=default;" vertex="1" connectable="0" parent="i5tXzH6cKKCym1gsXH8T-224">
          <mxGeometry width="30" height="26" as="geometry" />
        </mxCell>
        <mxCell id="i5tXzH6cKKCym1gsXH8T-222" value="orbital_apaapsis" style="shape=partialRectangle;top=0;left=0;right=0;bottom=0;html=1;align=left;verticalAlign=top;fillColor=none;spacingLeft=34;spacingRight=4;whiteSpace=wrap;overflow=hidden;rotatable=0;points=[[0,0.5],[1,0.5]];portConstraint=eastwest;dropTarget=0;strokeColor=default;" vertex="1" parent="i5tXzH6cKKCym1gsXH8T-138">
          <mxGeometry y="402" width="160" height="26" as="geometry" />
        </mxCell>
        <mxCell id="i5tXzH6cKKCym1gsXH8T-223" value="" style="shape=partialRectangle;top=0;left=0;bottom=0;html=1;fillColor=none;align=left;verticalAlign=top;spacingLeft=4;spacingRight=4;whiteSpace=wrap;overflow=hidden;rotatable=0;points=[];portConstraint=eastwest;part=1;strokeColor=default;" vertex="1" connectable="0" parent="i5tXzH6cKKCym1gsXH8T-222">
          <mxGeometry width="30" height="26" as="geometry" />
        </mxCell>
        <mxCell id="i5tXzH6cKKCym1gsXH8T-196" value="orbital_velocity" style="shape=partialRectangle;top=0;left=0;right=0;bottom=0;html=1;align=left;verticalAlign=top;fillColor=none;spacingLeft=34;spacingRight=4;whiteSpace=wrap;overflow=hidden;rotatable=0;points=[[0,0.5],[1,0.5]];portConstraint=eastwest;dropTarget=0;strokeColor=default;" vertex="1" parent="i5tXzH6cKKCym1gsXH8T-138">
          <mxGeometry y="428" width="160" height="26" as="geometry" />
        </mxCell>
        <mxCell id="i5tXzH6cKKCym1gsXH8T-197" value="" style="shape=partialRectangle;top=0;left=0;bottom=0;html=1;fillColor=none;align=left;verticalAlign=top;spacingLeft=4;spacingRight=4;whiteSpace=wrap;overflow=hidden;rotatable=0;points=[];portConstraint=eastwest;part=1;strokeColor=default;" vertex="1" connectable="0" parent="i5tXzH6cKKCym1gsXH8T-196">
          <mxGeometry width="30" height="26" as="geometry" />
        </mxCell>
        <mxCell id="i5tXzH6cKKCym1gsXH8T-161" value="rotation_period" style="shape=partialRectangle;top=0;left=0;right=0;bottom=0;html=1;align=left;verticalAlign=top;fillColor=none;spacingLeft=34;spacingRight=4;whiteSpace=wrap;overflow=hidden;rotatable=0;points=[[0,0.5],[1,0.5]];portConstraint=eastwest;dropTarget=0;strokeColor=default;" vertex="1" parent="i5tXzH6cKKCym1gsXH8T-138">
          <mxGeometry y="454" width="160" height="26" as="geometry" />
        </mxCell>
        <mxCell id="i5tXzH6cKKCym1gsXH8T-162" value="" style="shape=partialRectangle;top=0;left=0;bottom=0;html=1;fillColor=none;align=left;verticalAlign=top;spacingLeft=4;spacingRight=4;whiteSpace=wrap;overflow=hidden;rotatable=0;points=[];portConstraint=eastwest;part=1;strokeColor=default;" vertex="1" connectable="0" parent="i5tXzH6cKKCym1gsXH8T-161">
          <mxGeometry width="30" height="26" as="geometry" />
        </mxCell>
        <mxCell id="i5tXzH6cKKCym1gsXH8T-228" value="rotation_velocity" style="shape=partialRectangle;top=0;left=0;right=0;bottom=0;html=1;align=left;verticalAlign=top;fillColor=none;spacingLeft=34;spacingRight=4;whiteSpace=wrap;overflow=hidden;rotatable=0;points=[[0,0.5],[1,0.5]];portConstraint=eastwest;dropTarget=0;strokeColor=default;" vertex="1" parent="i5tXzH6cKKCym1gsXH8T-138">
          <mxGeometry y="480" width="160" height="26" as="geometry" />
        </mxCell>
        <mxCell id="i5tXzH6cKKCym1gsXH8T-229" value="" style="shape=partialRectangle;top=0;left=0;bottom=0;html=1;fillColor=none;align=left;verticalAlign=top;spacingLeft=4;spacingRight=4;whiteSpace=wrap;overflow=hidden;rotatable=0;points=[];portConstraint=eastwest;part=1;strokeColor=default;" vertex="1" connectable="0" parent="i5tXzH6cKKCym1gsXH8T-228">
          <mxGeometry width="30" height="26" as="geometry" />
        </mxCell>
        <mxCell id="i5tXzH6cKKCym1gsXH8T-157" value="planet_obliquity" style="shape=partialRectangle;top=0;left=0;right=0;bottom=0;html=1;align=left;verticalAlign=top;fillColor=none;spacingLeft=34;spacingRight=4;whiteSpace=wrap;overflow=hidden;rotatable=0;points=[[0,0.5],[1,0.5]];portConstraint=eastwest;dropTarget=0;strokeColor=default;" vertex="1" parent="i5tXzH6cKKCym1gsXH8T-138">
          <mxGeometry y="506" width="160" height="26" as="geometry" />
        </mxCell>
        <mxCell id="i5tXzH6cKKCym1gsXH8T-158" value="" style="shape=partialRectangle;top=0;left=0;bottom=0;html=1;fillColor=none;align=left;verticalAlign=top;spacingLeft=4;spacingRight=4;whiteSpace=wrap;overflow=hidden;rotatable=0;points=[];portConstraint=eastwest;part=1;strokeColor=default;" vertex="1" connectable="0" parent="i5tXzH6cKKCym1gsXH8T-157">
          <mxGeometry width="30" height="26" as="geometry" />
        </mxCell>
        <mxCell id="i5tXzH6cKKCym1gsXH8T-232" value="planet_temperature" style="shape=partialRectangle;top=0;left=0;right=0;bottom=0;html=1;align=left;verticalAlign=top;fillColor=none;spacingLeft=34;spacingRight=4;whiteSpace=wrap;overflow=hidden;rotatable=0;points=[[0,0.5],[1,0.5]];portConstraint=eastwest;dropTarget=0;strokeColor=default;" vertex="1" parent="i5tXzH6cKKCym1gsXH8T-138">
          <mxGeometry y="532" width="160" height="26" as="geometry" />
        </mxCell>
        <mxCell id="i5tXzH6cKKCym1gsXH8T-233" value="" style="shape=partialRectangle;top=0;left=0;bottom=0;html=1;fillColor=none;align=left;verticalAlign=top;spacingLeft=4;spacingRight=4;whiteSpace=wrap;overflow=hidden;rotatable=0;points=[];portConstraint=eastwest;part=1;strokeColor=default;" vertex="1" connectable="0" parent="i5tXzH6cKKCym1gsXH8T-232">
          <mxGeometry width="30" height="26" as="geometry" />
        </mxCell>
        <mxCell id="i5tXzH6cKKCym1gsXH8T-204" value="surface_temperature" style="shape=partialRectangle;top=0;left=0;right=0;bottom=0;html=1;align=left;verticalAlign=top;fillColor=none;spacingLeft=34;spacingRight=4;whiteSpace=wrap;overflow=hidden;rotatable=0;points=[[0,0.5],[1,0.5]];portConstraint=eastwest;dropTarget=0;strokeColor=default;" vertex="1" parent="i5tXzH6cKKCym1gsXH8T-138">
          <mxGeometry y="558" width="160" height="26" as="geometry" />
        </mxCell>
        <mxCell id="i5tXzH6cKKCym1gsXH8T-205" value="" style="shape=partialRectangle;top=0;left=0;bottom=0;html=1;fillColor=none;align=left;verticalAlign=top;spacingLeft=4;spacingRight=4;whiteSpace=wrap;overflow=hidden;rotatable=0;points=[];portConstraint=eastwest;part=1;strokeColor=default;" vertex="1" connectable="0" parent="i5tXzH6cKKCym1gsXH8T-204">
          <mxGeometry width="30" height="26" as="geometry" />
        </mxCell>
        <mxCell id="i5tXzH6cKKCym1gsXH8T-238" value="surface_pressure" style="shape=partialRectangle;top=0;left=0;right=0;bottom=0;html=1;align=left;verticalAlign=top;fillColor=none;spacingLeft=34;spacingRight=4;whiteSpace=wrap;overflow=hidden;rotatable=0;points=[[0,0.5],[1,0.5]];portConstraint=eastwest;dropTarget=0;strokeColor=default;" vertex="1" parent="i5tXzH6cKKCym1gsXH8T-138">
          <mxGeometry y="584" width="160" height="26" as="geometry" />
        </mxCell>
        <mxCell id="i5tXzH6cKKCym1gsXH8T-239" value="" style="shape=partialRectangle;top=0;left=0;bottom=0;html=1;fillColor=none;align=left;verticalAlign=top;spacingLeft=4;spacingRight=4;whiteSpace=wrap;overflow=hidden;rotatable=0;points=[];portConstraint=eastwest;part=1;strokeColor=default;" vertex="1" connectable="0" parent="i5tXzH6cKKCym1gsXH8T-238">
          <mxGeometry width="30" height="26" as="geometry" />
        </mxCell>
        <mxCell id="i5tXzH6cKKCym1gsXH8T-242" value="surface_gravity" style="shape=partialRectangle;top=0;left=0;right=0;bottom=0;html=1;align=left;verticalAlign=top;fillColor=none;spacingLeft=34;spacingRight=4;whiteSpace=wrap;overflow=hidden;rotatable=0;points=[[0,0.5],[1,0.5]];portConstraint=eastwest;dropTarget=0;strokeColor=default;" vertex="1" parent="i5tXzH6cKKCym1gsXH8T-138">
          <mxGeometry y="610" width="160" height="26" as="geometry" />
        </mxCell>
        <mxCell id="i5tXzH6cKKCym1gsXH8T-243" value="" style="shape=partialRectangle;top=0;left=0;bottom=0;html=1;fillColor=none;align=left;verticalAlign=top;spacingLeft=4;spacingRight=4;whiteSpace=wrap;overflow=hidden;rotatable=0;points=[];portConstraint=eastwest;part=1;strokeColor=default;" vertex="1" connectable="0" parent="i5tXzH6cKKCym1gsXH8T-242">
          <mxGeometry width="30" height="26" as="geometry" />
        </mxCell>
        <mxCell id="i5tXzH6cKKCym1gsXH8T-244" value="surface_land" style="shape=partialRectangle;top=0;left=0;right=0;bottom=0;html=1;align=left;verticalAlign=top;fillColor=none;spacingLeft=34;spacingRight=4;whiteSpace=wrap;overflow=hidden;rotatable=0;points=[[0,0.5],[1,0.5]];portConstraint=eastwest;dropTarget=0;strokeColor=default;" vertex="1" parent="i5tXzH6cKKCym1gsXH8T-138">
          <mxGeometry y="636" width="160" height="26" as="geometry" />
        </mxCell>
        <mxCell id="i5tXzH6cKKCym1gsXH8T-245" value="" style="shape=partialRectangle;top=0;left=0;bottom=0;html=1;fillColor=none;align=left;verticalAlign=top;spacingLeft=4;spacingRight=4;whiteSpace=wrap;overflow=hidden;rotatable=0;points=[];portConstraint=eastwest;part=1;strokeColor=default;" vertex="1" connectable="0" parent="i5tXzH6cKKCym1gsXH8T-244">
          <mxGeometry width="30" height="26" as="geometry" />
        </mxCell>
        <mxCell id="i5tXzH6cKKCym1gsXH8T-240" value="surface_water" style="shape=partialRectangle;top=0;left=0;right=0;bottom=0;html=1;align=left;verticalAlign=top;fillColor=none;spacingLeft=34;spacingRight=4;whiteSpace=wrap;overflow=hidden;rotatable=0;points=[[0,0.5],[1,0.5]];portConstraint=eastwest;dropTarget=0;strokeColor=default;" vertex="1" parent="i5tXzH6cKKCym1gsXH8T-138">
          <mxGeometry y="662" width="160" height="26" as="geometry" />
        </mxCell>
        <mxCell id="i5tXzH6cKKCym1gsXH8T-241" value="" style="shape=partialRectangle;top=0;left=0;bottom=0;html=1;fillColor=none;align=left;verticalAlign=top;spacingLeft=4;spacingRight=4;whiteSpace=wrap;overflow=hidden;rotatable=0;points=[];portConstraint=eastwest;part=1;strokeColor=default;" vertex="1" connectable="0" parent="i5tXzH6cKKCym1gsXH8T-240">
          <mxGeometry width="30" height="26" as="geometry" />
        </mxCell>
        <mxCell id="i5tXzH6cKKCym1gsXH8T-159" value="has_atmosphere" style="shape=partialRectangle;top=0;left=0;right=0;bottom=0;html=1;align=left;verticalAlign=top;fillColor=none;spacingLeft=34;spacingRight=4;whiteSpace=wrap;overflow=hidden;rotatable=0;points=[[0,0.5],[1,0.5]];portConstraint=eastwest;dropTarget=0;strokeColor=default;" vertex="1" parent="i5tXzH6cKKCym1gsXH8T-138">
          <mxGeometry y="688" width="160" height="26" as="geometry" />
        </mxCell>
        <mxCell id="i5tXzH6cKKCym1gsXH8T-160" value="" style="shape=partialRectangle;top=0;left=0;bottom=0;html=1;fillColor=none;align=left;verticalAlign=top;spacingLeft=4;spacingRight=4;whiteSpace=wrap;overflow=hidden;rotatable=0;points=[];portConstraint=eastwest;part=1;strokeColor=default;" vertex="1" connectable="0" parent="i5tXzH6cKKCym1gsXH8T-159">
          <mxGeometry width="30" height="26" as="geometry" />
        </mxCell>
        <mxCell id="i5tXzH6cKKCym1gsXH8T-230" value="has_rings" style="shape=partialRectangle;top=0;left=0;right=0;bottom=0;html=1;align=left;verticalAlign=top;fillColor=none;spacingLeft=34;spacingRight=4;whiteSpace=wrap;overflow=hidden;rotatable=0;points=[[0,0.5],[1,0.5]];portConstraint=eastwest;dropTarget=0;strokeColor=default;" vertex="1" parent="i5tXzH6cKKCym1gsXH8T-138">
          <mxGeometry y="714" width="160" height="26" as="geometry" />
        </mxCell>
        <mxCell id="i5tXzH6cKKCym1gsXH8T-231" value="" style="shape=partialRectangle;top=0;left=0;bottom=0;html=1;fillColor=none;align=left;verticalAlign=top;spacingLeft=4;spacingRight=4;whiteSpace=wrap;overflow=hidden;rotatable=0;points=[];portConstraint=eastwest;part=1;strokeColor=default;" vertex="1" connectable="0" parent="i5tXzH6cKKCym1gsXH8T-230">
          <mxGeometry width="30" height="26" as="geometry" />
        </mxCell>
        <mxCell id="i5tXzH6cKKCym1gsXH8T-194" value="has_moons" style="shape=partialRectangle;top=0;left=0;right=0;bottom=0;html=1;align=left;verticalAlign=top;fillColor=none;spacingLeft=34;spacingRight=4;whiteSpace=wrap;overflow=hidden;rotatable=0;points=[[0,0.5],[1,0.5]];portConstraint=eastwest;dropTarget=0;strokeColor=default;" vertex="1" parent="i5tXzH6cKKCym1gsXH8T-138">
          <mxGeometry y="740" width="160" height="26" as="geometry" />
        </mxCell>
        <mxCell id="i5tXzH6cKKCym1gsXH8T-195" value="" style="shape=partialRectangle;top=0;left=0;bottom=0;html=1;fillColor=none;align=left;verticalAlign=top;spacingLeft=4;spacingRight=4;whiteSpace=wrap;overflow=hidden;rotatable=0;points=[];portConstraint=eastwest;part=1;strokeColor=default;" vertex="1" connectable="0" parent="i5tXzH6cKKCym1gsXH8T-194">
          <mxGeometry width="30" height="26" as="geometry" />
        </mxCell>
        <mxCell id="i5tXzH6cKKCym1gsXH8T-236" value="has_life" style="shape=partialRectangle;top=0;left=0;right=0;bottom=0;html=1;align=left;verticalAlign=top;fillColor=none;spacingLeft=34;spacingRight=4;whiteSpace=wrap;overflow=hidden;rotatable=0;points=[[0,0.5],[1,0.5]];portConstraint=eastwest;dropTarget=0;strokeColor=default;" vertex="1" parent="i5tXzH6cKKCym1gsXH8T-138">
          <mxGeometry y="766" width="160" height="26" as="geometry" />
        </mxCell>
        <mxCell id="i5tXzH6cKKCym1gsXH8T-237" value="" style="shape=partialRectangle;top=0;left=0;bottom=0;html=1;fillColor=none;align=left;verticalAlign=top;spacingLeft=4;spacingRight=4;whiteSpace=wrap;overflow=hidden;rotatable=0;points=[];portConstraint=eastwest;part=1;strokeColor=default;" vertex="1" connectable="0" parent="i5tXzH6cKKCym1gsXH8T-236">
          <mxGeometry width="30" height="26" as="geometry" />
        </mxCell>
        <mxCell id="i5tXzH6cKKCym1gsXH8T-234" value="is_habitable" style="shape=partialRectangle;top=0;left=0;right=0;bottom=0;html=1;align=left;verticalAlign=top;fillColor=none;spacingLeft=34;spacingRight=4;whiteSpace=wrap;overflow=hidden;rotatable=0;points=[[0,0.5],[1,0.5]];portConstraint=eastwest;dropTarget=0;strokeColor=default;" vertex="1" parent="i5tXzH6cKKCym1gsXH8T-138">
          <mxGeometry y="792" width="160" height="26" as="geometry" />
        </mxCell>
        <mxCell id="i5tXzH6cKKCym1gsXH8T-235" value="" style="shape=partialRectangle;top=0;left=0;bottom=0;html=1;fillColor=none;align=left;verticalAlign=top;spacingLeft=4;spacingRight=4;whiteSpace=wrap;overflow=hidden;rotatable=0;points=[];portConstraint=eastwest;part=1;strokeColor=default;" vertex="1" connectable="0" parent="i5tXzH6cKKCym1gsXH8T-234">
          <mxGeometry width="30" height="26" as="geometry" />
        </mxCell>
        <mxCell id="i5tXzH6cKKCym1gsXH8T-163" value="density" style="shape=partialRectangle;top=0;left=0;right=0;bottom=0;html=1;align=left;verticalAlign=top;fillColor=none;spacingLeft=34;spacingRight=4;whiteSpace=wrap;overflow=hidden;rotatable=0;points=[[0,0.5],[1,0.5]];portConstraint=eastwest;dropTarget=0;strokeColor=default;" vertex="1" parent="i5tXzH6cKKCym1gsXH8T-138">
          <mxGeometry y="818" width="160" height="26" as="geometry" />
        </mxCell>
        <mxCell id="i5tXzH6cKKCym1gsXH8T-164" value="" style="shape=partialRectangle;top=0;left=0;bottom=0;html=1;fillColor=none;align=left;verticalAlign=top;spacingLeft=4;spacingRight=4;whiteSpace=wrap;overflow=hidden;rotatable=0;points=[];portConstraint=eastwest;part=1;strokeColor=default;" vertex="1" connectable="0" parent="i5tXzH6cKKCym1gsXH8T-163">
          <mxGeometry width="30" height="26" as="geometry" />
        </mxCell>
        <mxCell id="i5tXzH6cKKCym1gsXH8T-206" value="discover_date" style="shape=partialRectangle;top=0;left=0;right=0;bottom=0;html=1;align=left;verticalAlign=top;fillColor=none;spacingLeft=34;spacingRight=4;whiteSpace=wrap;overflow=hidden;rotatable=0;points=[[0,0.5],[1,0.5]];portConstraint=eastwest;dropTarget=0;strokeColor=default;" vertex="1" parent="i5tXzH6cKKCym1gsXH8T-138">
          <mxGeometry y="844" width="160" height="26" as="geometry" />
        </mxCell>
        <mxCell id="i5tXzH6cKKCym1gsXH8T-207" value="" style="shape=partialRectangle;top=0;left=0;bottom=0;html=1;fillColor=none;align=left;verticalAlign=top;spacingLeft=4;spacingRight=4;whiteSpace=wrap;overflow=hidden;rotatable=0;points=[];portConstraint=eastwest;part=1;strokeColor=default;" vertex="1" connectable="0" parent="i5tXzH6cKKCym1gsXH8T-206">
          <mxGeometry width="30" height="26" as="geometry" />
        </mxCell>
        <mxCell id="i5tXzH6cKKCym1gsXH8T-167" value="init_date" style="shape=partialRectangle;top=0;left=0;right=0;bottom=0;html=1;align=left;verticalAlign=top;fillColor=none;spacingLeft=34;spacingRight=4;whiteSpace=wrap;overflow=hidden;rotatable=0;points=[[0,0.5],[1,0.5]];portConstraint=eastwest;dropTarget=0;strokeColor=default;" vertex="1" parent="i5tXzH6cKKCym1gsXH8T-138">
          <mxGeometry y="870" width="160" height="26" as="geometry" />
        </mxCell>
        <mxCell id="i5tXzH6cKKCym1gsXH8T-168" value="" style="shape=partialRectangle;top=0;left=0;bottom=0;html=1;fillColor=none;align=left;verticalAlign=top;spacingLeft=4;spacingRight=4;whiteSpace=wrap;overflow=hidden;rotatable=0;points=[];portConstraint=eastwest;part=1;strokeColor=default;" vertex="1" connectable="0" parent="i5tXzH6cKKCym1gsXH8T-167">
          <mxGeometry width="30" height="26" as="geometry" />
        </mxCell>
        <mxCell id="i5tXzH6cKKCym1gsXH8T-169" value="" style="shape=partialRectangle;top=0;left=0;right=0;bottom=0;html=1;align=left;verticalAlign=top;fillColor=none;spacingLeft=34;spacingRight=4;whiteSpace=wrap;overflow=hidden;rotatable=0;points=[[0,0.5],[1,0.5]];portConstraint=eastwest;dropTarget=0;strokeColor=default;" vertex="1" parent="i5tXzH6cKKCym1gsXH8T-138">
          <mxGeometry y="896" width="160" height="10" as="geometry" />
        </mxCell>
        <mxCell id="i5tXzH6cKKCym1gsXH8T-170" value="" style="shape=partialRectangle;top=0;left=0;bottom=0;html=1;fillColor=none;align=left;verticalAlign=top;spacingLeft=4;spacingRight=4;whiteSpace=wrap;overflow=hidden;rotatable=0;points=[];portConstraint=eastwest;part=1;strokeColor=default;" vertex="1" connectable="0" parent="i5tXzH6cKKCym1gsXH8T-169">
          <mxGeometry width="30" height="10" as="geometry" />
        </mxCell>
        <mxCell id="i5tXzH6cKKCym1gsXH8T-171" value="Planet Types" style="swimlane;html=1;fontStyle=0;childLayout=stackLayout;horizontal=1;startSize=26;fillColor=none;horizontalStack=0;resizeParent=1;resizeLast=0;collapsible=1;marginBottom=0;swimlaneFillColor=none;align=center;rounded=0;shadow=0;comic=0;labelBackgroundColor=none;strokeWidth=1;fontFamily=Verdana;fontSize=14;strokeColor=default;" vertex="1" parent="1">
          <mxGeometry x="2075" y="650" width="170" height="320" as="geometry" />
        </mxCell>
        <mxCell id="i5tXzH6cKKCym1gsXH8T-172" value="type_id" style="shape=partialRectangle;top=0;left=0;right=0;bottom=1;html=1;align=left;verticalAlign=middle;fillColor=none;spacingLeft=34;spacingRight=4;whiteSpace=wrap;overflow=hidden;rotatable=0;points=[[0,0.5],[1,0.5]];portConstraint=eastwest;dropTarget=0;fontStyle=5;strokeColor=default;" vertex="1" parent="i5tXzH6cKKCym1gsXH8T-171">
          <mxGeometry y="26" width="170" height="30" as="geometry" />
        </mxCell>
        <mxCell id="i5tXzH6cKKCym1gsXH8T-173" value="PK" style="shape=partialRectangle;top=0;left=0;bottom=0;html=1;fillColor=none;align=left;verticalAlign=middle;spacingLeft=4;spacingRight=4;whiteSpace=wrap;overflow=hidden;rotatable=0;points=[];portConstraint=eastwest;part=1;strokeColor=default;" vertex="1" connectable="0" parent="i5tXzH6cKKCym1gsXH8T-172">
          <mxGeometry width="30" height="30" as="geometry" />
        </mxCell>
        <mxCell id="i5tXzH6cKKCym1gsXH8T-174" value="type_name" style="shape=partialRectangle;top=0;left=0;right=0;bottom=0;html=1;align=left;verticalAlign=top;fillColor=none;spacingLeft=34;spacingRight=4;whiteSpace=wrap;overflow=hidden;rotatable=0;points=[[0,0.5],[1,0.5]];portConstraint=eastwest;dropTarget=0;strokeColor=default;" vertex="1" parent="i5tXzH6cKKCym1gsXH8T-171">
          <mxGeometry y="56" width="170" height="26" as="geometry" />
        </mxCell>
        <mxCell id="i5tXzH6cKKCym1gsXH8T-175" value="" style="shape=partialRectangle;top=0;left=0;bottom=0;html=1;fillColor=none;align=left;verticalAlign=top;spacingLeft=4;spacingRight=4;whiteSpace=wrap;overflow=hidden;rotatable=0;points=[];portConstraint=eastwest;part=1;strokeColor=default;" vertex="1" connectable="0" parent="i5tXzH6cKKCym1gsXH8T-174">
          <mxGeometry width="30" height="26" as="geometry" />
        </mxCell>
        <mxCell id="i5tXzH6cKKCym1gsXH8T-178" value="description" style="shape=partialRectangle;top=0;left=0;right=0;bottom=0;html=1;align=left;verticalAlign=top;fillColor=none;spacingLeft=34;spacingRight=4;whiteSpace=wrap;overflow=hidden;rotatable=0;points=[[0,0.5],[1,0.5]];portConstraint=eastwest;dropTarget=0;strokeColor=default;" vertex="1" parent="i5tXzH6cKKCym1gsXH8T-171">
          <mxGeometry y="82" width="170" height="26" as="geometry" />
        </mxCell>
        <mxCell id="i5tXzH6cKKCym1gsXH8T-179" value="" style="shape=partialRectangle;top=0;left=0;bottom=0;html=1;fillColor=none;align=left;verticalAlign=top;spacingLeft=4;spacingRight=4;whiteSpace=wrap;overflow=hidden;rotatable=0;points=[];portConstraint=eastwest;part=1;strokeColor=default;" vertex="1" connectable="0" parent="i5tXzH6cKKCym1gsXH8T-178">
          <mxGeometry width="30" height="26" as="geometry" />
        </mxCell>
        <mxCell id="i5tXzH6cKKCym1gsXH8T-184" value="typical_mass" style="shape=partialRectangle;top=0;left=0;right=0;bottom=0;html=1;align=left;verticalAlign=top;fillColor=none;spacingLeft=34;spacingRight=4;whiteSpace=wrap;overflow=hidden;rotatable=0;points=[[0,0.5],[1,0.5]];portConstraint=eastwest;dropTarget=0;strokeColor=default;" vertex="1" parent="i5tXzH6cKKCym1gsXH8T-171">
          <mxGeometry y="108" width="170" height="26" as="geometry" />
        </mxCell>
        <mxCell id="i5tXzH6cKKCym1gsXH8T-185" value="" style="shape=partialRectangle;top=0;left=0;bottom=0;html=1;fillColor=none;align=left;verticalAlign=top;spacingLeft=4;spacingRight=4;whiteSpace=wrap;overflow=hidden;rotatable=0;points=[];portConstraint=eastwest;part=1;strokeColor=default;" vertex="1" connectable="0" parent="i5tXzH6cKKCym1gsXH8T-184">
          <mxGeometry width="30" height="26" as="geometry" />
        </mxCell>
        <mxCell id="i5tXzH6cKKCym1gsXH8T-180" value="typical_radius" style="shape=partialRectangle;top=0;left=0;right=0;bottom=0;html=1;align=left;verticalAlign=top;fillColor=none;spacingLeft=34;spacingRight=4;whiteSpace=wrap;overflow=hidden;rotatable=0;points=[[0,0.5],[1,0.5]];portConstraint=eastwest;dropTarget=0;strokeColor=default;" vertex="1" parent="i5tXzH6cKKCym1gsXH8T-171">
          <mxGeometry y="134" width="170" height="26" as="geometry" />
        </mxCell>
        <mxCell id="i5tXzH6cKKCym1gsXH8T-181" value="" style="shape=partialRectangle;top=0;left=0;bottom=0;html=1;fillColor=none;align=left;verticalAlign=top;spacingLeft=4;spacingRight=4;whiteSpace=wrap;overflow=hidden;rotatable=0;points=[];portConstraint=eastwest;part=1;strokeColor=default;" vertex="1" connectable="0" parent="i5tXzH6cKKCym1gsXH8T-180">
          <mxGeometry width="30" height="26" as="geometry" />
        </mxCell>
        <mxCell id="i5tXzH6cKKCym1gsXH8T-182" value="typical_temperature" style="shape=partialRectangle;top=0;left=0;right=0;bottom=0;html=1;align=left;verticalAlign=top;fillColor=none;spacingLeft=34;spacingRight=4;whiteSpace=wrap;overflow=hidden;rotatable=0;points=[[0,0.5],[1,0.5]];portConstraint=eastwest;dropTarget=0;strokeColor=default;" vertex="1" parent="i5tXzH6cKKCym1gsXH8T-171">
          <mxGeometry y="160" width="170" height="26" as="geometry" />
        </mxCell>
        <mxCell id="i5tXzH6cKKCym1gsXH8T-183" value="" style="shape=partialRectangle;top=0;left=0;bottom=0;html=1;fillColor=none;align=left;verticalAlign=top;spacingLeft=4;spacingRight=4;whiteSpace=wrap;overflow=hidden;rotatable=0;points=[];portConstraint=eastwest;part=1;strokeColor=default;" vertex="1" connectable="0" parent="i5tXzH6cKKCym1gsXH8T-182">
          <mxGeometry width="30" height="26" as="geometry" />
        </mxCell>
        <mxCell id="i5tXzH6cKKCym1gsXH8T-218" value="typical_rotation_velocity" style="shape=partialRectangle;top=0;left=0;right=0;bottom=0;html=1;align=left;verticalAlign=top;fillColor=none;spacingLeft=34;spacingRight=4;whiteSpace=wrap;overflow=hidden;rotatable=0;points=[[0,0.5],[1,0.5]];portConstraint=eastwest;dropTarget=0;strokeColor=default;" vertex="1" parent="i5tXzH6cKKCym1gsXH8T-171">
          <mxGeometry y="186" width="170" height="26" as="geometry" />
        </mxCell>
        <mxCell id="i5tXzH6cKKCym1gsXH8T-219" value="" style="shape=partialRectangle;top=0;left=0;bottom=0;html=1;fillColor=none;align=left;verticalAlign=top;spacingLeft=4;spacingRight=4;whiteSpace=wrap;overflow=hidden;rotatable=0;points=[];portConstraint=eastwest;part=1;strokeColor=default;" vertex="1" connectable="0" parent="i5tXzH6cKKCym1gsXH8T-218">
          <mxGeometry width="30" height="26" as="geometry" />
        </mxCell>
        <mxCell id="i5tXzH6cKKCym1gsXH8T-216" value="typical_rings" style="shape=partialRectangle;top=0;left=0;right=0;bottom=0;html=1;align=left;verticalAlign=top;fillColor=none;spacingLeft=34;spacingRight=4;whiteSpace=wrap;overflow=hidden;rotatable=0;points=[[0,0.5],[1,0.5]];portConstraint=eastwest;dropTarget=0;strokeColor=default;" vertex="1" parent="i5tXzH6cKKCym1gsXH8T-171">
          <mxGeometry y="212" width="170" height="26" as="geometry" />
        </mxCell>
        <mxCell id="i5tXzH6cKKCym1gsXH8T-217" value="" style="shape=partialRectangle;top=0;left=0;bottom=0;html=1;fillColor=none;align=left;verticalAlign=top;spacingLeft=4;spacingRight=4;whiteSpace=wrap;overflow=hidden;rotatable=0;points=[];portConstraint=eastwest;part=1;strokeColor=default;" vertex="1" connectable="0" parent="i5tXzH6cKKCym1gsXH8T-216">
          <mxGeometry width="30" height="26" as="geometry" />
        </mxCell>
        <mxCell id="i5tXzH6cKKCym1gsXH8T-186" value="typical_habitablity" style="shape=partialRectangle;top=0;left=0;right=0;bottom=0;html=1;align=left;verticalAlign=top;fillColor=none;spacingLeft=34;spacingRight=4;whiteSpace=wrap;overflow=hidden;rotatable=0;points=[[0,0.5],[1,0.5]];portConstraint=eastwest;dropTarget=0;strokeColor=default;" vertex="1" parent="i5tXzH6cKKCym1gsXH8T-171">
          <mxGeometry y="238" width="170" height="26" as="geometry" />
        </mxCell>
        <mxCell id="i5tXzH6cKKCym1gsXH8T-187" value="" style="shape=partialRectangle;top=0;left=0;bottom=0;html=1;fillColor=none;align=left;verticalAlign=top;spacingLeft=4;spacingRight=4;whiteSpace=wrap;overflow=hidden;rotatable=0;points=[];portConstraint=eastwest;part=1;strokeColor=default;" vertex="1" connectable="0" parent="i5tXzH6cKKCym1gsXH8T-186">
          <mxGeometry width="30" height="26" as="geometry" />
        </mxCell>
        <mxCell id="i5tXzH6cKKCym1gsXH8T-176" value="typical_atmosphere" style="shape=partialRectangle;top=0;left=0;right=0;bottom=0;html=1;align=left;verticalAlign=top;fillColor=none;spacingLeft=34;spacingRight=4;whiteSpace=wrap;overflow=hidden;rotatable=0;points=[[0,0.5],[1,0.5]];portConstraint=eastwest;dropTarget=0;strokeColor=default;" vertex="1" parent="i5tXzH6cKKCym1gsXH8T-171">
          <mxGeometry y="264" width="170" height="26" as="geometry" />
        </mxCell>
        <mxCell id="i5tXzH6cKKCym1gsXH8T-177" value="" style="shape=partialRectangle;top=0;left=0;bottom=0;html=1;fillColor=none;align=left;verticalAlign=top;spacingLeft=4;spacingRight=4;whiteSpace=wrap;overflow=hidden;rotatable=0;points=[];portConstraint=eastwest;part=1;strokeColor=default;" vertex="1" connectable="0" parent="i5tXzH6cKKCym1gsXH8T-176">
          <mxGeometry width="30" height="26" as="geometry" />
        </mxCell>
        <mxCell id="i5tXzH6cKKCym1gsXH8T-188" value="init_date" style="shape=partialRectangle;top=0;left=0;right=0;bottom=0;html=1;align=left;verticalAlign=top;fillColor=none;spacingLeft=34;spacingRight=4;whiteSpace=wrap;overflow=hidden;rotatable=0;points=[[0,0.5],[1,0.5]];portConstraint=eastwest;dropTarget=0;strokeColor=default;" vertex="1" parent="i5tXzH6cKKCym1gsXH8T-171">
          <mxGeometry y="290" width="170" height="26" as="geometry" />
        </mxCell>
        <mxCell id="i5tXzH6cKKCym1gsXH8T-189" value="" style="shape=partialRectangle;top=0;left=0;bottom=0;html=1;fillColor=none;align=left;verticalAlign=top;spacingLeft=4;spacingRight=4;whiteSpace=wrap;overflow=hidden;rotatable=0;points=[];portConstraint=eastwest;part=1;strokeColor=default;" vertex="1" connectable="0" parent="i5tXzH6cKKCym1gsXH8T-188">
          <mxGeometry width="30" height="26" as="geometry" />
        </mxCell>
        <mxCell id="i5tXzH6cKKCym1gsXH8T-190" value="" style="shape=partialRectangle;top=0;left=0;right=0;bottom=0;html=1;align=left;verticalAlign=top;fillColor=none;spacingLeft=34;spacingRight=4;whiteSpace=wrap;overflow=hidden;rotatable=0;points=[[0,0.5],[1,0.5]];portConstraint=eastwest;dropTarget=0;strokeColor=default;" vertex="1" parent="i5tXzH6cKKCym1gsXH8T-171">
          <mxGeometry y="316" width="170" height="4" as="geometry" />
        </mxCell>
        <mxCell id="i5tXzH6cKKCym1gsXH8T-191" value="" style="shape=partialRectangle;top=0;left=0;bottom=0;html=1;fillColor=none;align=left;verticalAlign=top;spacingLeft=4;spacingRight=4;whiteSpace=wrap;overflow=hidden;rotatable=0;points=[];portConstraint=eastwest;part=1;strokeColor=default;" vertex="1" connectable="0" parent="i5tXzH6cKKCym1gsXH8T-190">
          <mxGeometry width="30" height="4" as="geometry" />
        </mxCell>
        <mxCell id="i5tXzH6cKKCym1gsXH8T-248" style="edgeStyle=entityRelationEdgeStyle;rounded=1;orthogonalLoop=1;jettySize=auto;html=1;entryX=0;entryY=0.5;entryDx=0;entryDy=0;endArrow=ERzeroToMany;endFill=0;startArrow=ERone;startFill=0;endSize=8;startSize=8;" edge="1" parent="1" source="i5tXzH6cKKCym1gsXH8T-4" target="i5tXzH6cKKCym1gsXH8T-93">
          <mxGeometry relative="1" as="geometry" />
        </mxCell>
        <mxCell id="i5tXzH6cKKCym1gsXH8T-249" style="edgeStyle=entityRelationEdgeStyle;rounded=1;orthogonalLoop=1;jettySize=auto;html=1;entryX=0;entryY=0.5;entryDx=0;entryDy=0;endSize=8;startSize=8;curved=0;endArrow=ERzeroToMany;endFill=0;startArrow=ERone;startFill=0;" edge="1" parent="1" source="i5tXzH6cKKCym1gsXH8T-21" target="i5tXzH6cKKCym1gsXH8T-97">
          <mxGeometry relative="1" as="geometry" />
        </mxCell>
        <mxCell id="i5tXzH6cKKCym1gsXH8T-251" style="edgeStyle=entityRelationEdgeStyle;rounded=1;orthogonalLoop=1;jettySize=auto;html=1;entryX=0;entryY=0.5;entryDx=0;entryDy=0;endSize=8;startSize=8;curved=0;startArrow=ERone;startFill=0;endArrow=ERzeroToMany;endFill=0;" edge="1" parent="1" source="i5tXzH6cKKCym1gsXH8T-73" target="i5tXzH6cKKCym1gsXH8T-128">
          <mxGeometry relative="1" as="geometry" />
        </mxCell>
        <mxCell id="i5tXzH6cKKCym1gsXH8T-252" style="edgeStyle=entityRelationEdgeStyle;rounded=1;orthogonalLoop=1;jettySize=auto;html=1;entryX=0;entryY=0.5;entryDx=0;entryDy=0;endSize=8;startSize=8;curved=0;startArrow=ERone;startFill=0;endArrow=ERzeroToMany;endFill=0;" edge="1" parent="1" source="i5tXzH6cKKCym1gsXH8T-73" target="i5tXzH6cKKCym1gsXH8T-132">
          <mxGeometry relative="1" as="geometry" />
        </mxCell>
        <mxCell id="i5tXzH6cKKCym1gsXH8T-253" style="edgeStyle=entityRelationEdgeStyle;rounded=1;orthogonalLoop=1;jettySize=auto;html=1;entryX=0;entryY=0.5;entryDx=0;entryDy=0;endSize=8;startSize=8;curved=0;startArrow=ERone;startFill=0;endArrow=ERzeroToMany;endFill=0;" edge="1" parent="1" source="i5tXzH6cKKCym1gsXH8T-73" target="i5tXzH6cKKCym1gsXH8T-130">
          <mxGeometry relative="1" as="geometry" />
        </mxCell>
        <mxCell id="i5tXzH6cKKCym1gsXH8T-254" style="edgeStyle=entityRelationEdgeStyle;rounded=1;orthogonalLoop=1;jettySize=auto;html=1;entryX=0;entryY=0.5;entryDx=0;entryDy=0;endSize=8;startSize=8;curved=0;startArrow=ERone;startFill=0;endArrow=ERzeroToMany;endFill=0;" edge="1" parent="1" source="i5tXzH6cKKCym1gsXH8T-73" target="i5tXzH6cKKCym1gsXH8T-134">
          <mxGeometry relative="1" as="geometry" />
        </mxCell>
        <mxCell id="i5tXzH6cKKCym1gsXH8T-255" style="edgeStyle=entityRelationEdgeStyle;rounded=1;orthogonalLoop=1;jettySize=auto;html=1;entryX=0;entryY=0.5;entryDx=0;entryDy=0;endSize=8;startSize=8;curved=0;startArrow=ERone;startFill=0;endArrow=ERzeroToMany;endFill=0;" edge="1" parent="1" source="i5tXzH6cKKCym1gsXH8T-73" target="i5tXzH6cKKCym1gsXH8T-136">
          <mxGeometry relative="1" as="geometry" />
        </mxCell>
        <mxCell id="i5tXzH6cKKCym1gsXH8T-257" style="edgeStyle=entityRelationEdgeStyle;rounded=1;orthogonalLoop=1;jettySize=auto;html=1;entryX=0;entryY=0.5;entryDx=0;entryDy=0;endSize=8;startSize=8;startArrow=ERone;startFill=0;endArrow=ERzeroToMany;endFill=0;" edge="1" parent="1" source="i5tXzH6cKKCym1gsXH8T-108" target="i5tXzH6cKKCym1gsXH8T-192">
          <mxGeometry relative="1" as="geometry" />
        </mxCell>
        <mxCell id="i5tXzH6cKKCym1gsXH8T-258" style="edgeStyle=entityRelationEdgeStyle;rounded=1;orthogonalLoop=1;jettySize=auto;html=1;entryX=0;entryY=0.5;entryDx=0;entryDy=0;endSize=8;startSize=8;startArrow=ERone;startFill=0;endArrow=ERzeroToMany;endFill=0;" edge="1" parent="1" source="i5tXzH6cKKCym1gsXH8T-172" target="i5tXzH6cKKCym1gsXH8T-141">
          <mxGeometry relative="1" as="geometry" />
        </mxCell>
      </root>
    </mxGraphModel>
  </diagram>
</mxfile>
